<svg width="24" height="24" viewBox="0 0 24 24" fill="none" xmlns="http://www.w3.org/2000/svg">
<path d="M5.94398 8.58667C5.86998 9.688 7.12265 10.6707 5.46932 10.5593C3.81598 10.448 0.245316 8.87067 0.29065 8.206C0.335983 7.54133 2.76265 6.368 4.41598 6.47933C6.06932 6.59 6.01865 7.48467 5.94398 8.58667ZM19.3586 19.286C19.2298 19.2687 19.0987 19.2907 18.9826 19.3493C17.4326 19.504 16.8326 18.0927 16.8326 18.0927C16.54 17.8687 16.1786 16.7533 15.7733 17.2827L15.898 18.2173C16.0226 19.152 17.6113 20.3667 17.6113 20.3667L16.8013 21.426C16.7481 21.4956 16.7092 21.5749 16.6866 21.6595C16.6641 21.7441 16.6585 21.8324 16.6701 21.9192C16.6817 22.0059 16.7102 22.0896 16.7541 22.1654C16.798 22.2411 16.8564 22.3075 16.926 22.3607C16.9955 22.4138 17.0749 22.4528 17.1595 22.4753C17.2441 22.4978 17.3323 22.5035 17.4191 22.4919C17.5059 22.4803 17.5896 22.4518 17.6653 22.4079C17.7411 22.364 17.8075 22.3056 17.8606 22.236L18.3093 21.6493L18.2833 21.8153C18.2556 21.99 18.2983 22.1686 18.4022 22.3117C18.5061 22.4549 18.6626 22.5509 18.8373 22.5787C19.012 22.6064 19.1906 22.5636 19.3337 22.4598C19.4769 22.3559 19.5729 22.1994 19.6006 22.0247L19.914 20.0493C19.9412 19.8745 19.8981 19.696 19.794 19.5529C19.6899 19.4099 19.5334 19.3139 19.3586 19.286ZM15.1733 19.7013C15.0478 19.6675 14.9151 19.6716 14.792 19.7133C13.2353 19.6587 12.8293 18.18 12.8293 18.18C12.5693 17.9187 12.3607 16.7647 11.888 17.2353L11.886 18.178C11.884 19.1207 13.296 20.5373 13.296 20.5373L12.3513 21.4787C12.2893 21.5404 12.24 21.6138 12.2064 21.6946C12.1727 21.7754 12.1553 21.862 12.1551 21.9496C12.1549 22.0371 12.172 22.1238 12.2053 22.2048C12.2386 22.2857 12.2876 22.3593 12.3493 22.4213C12.4111 22.4834 12.4845 22.5326 12.5653 22.5663C12.6461 22.6 12.7327 22.6174 12.8202 22.6176C12.9078 22.6177 12.9945 22.6007 13.0754 22.5674C13.1564 22.534 13.23 22.4851 13.292 22.4233L13.8153 21.902L13.7666 22.0633C13.7157 22.2327 13.7342 22.4154 13.8179 22.5712C13.9017 22.727 14.0439 22.8431 14.2133 22.894C14.3827 22.9449 14.5654 22.9265 14.7212 22.8427C14.8769 22.7589 14.9931 22.6167 15.044 22.4473L15.6186 20.532C15.6443 20.4482 15.6531 20.3602 15.6446 20.273C15.636 20.1858 15.6103 20.1012 15.5689 20.0239C15.5275 19.9467 15.4713 19.8785 15.4034 19.8231C15.3355 19.7677 15.2573 19.7263 15.1733 19.7013Z" fill="#FFAC33"/>
<path d="M23.3393 4.486C23.084 4.37266 22.834 4.448 22.6393 4.64866C22.6033 4.686 19.8227 8.85266 12.9513 7.94466C12.7247 7.91466 15.044 15.9233 15.084 15.9193C15.1667 15.91 17.1307 15.674 19.1773 14.2173C21.056 12.8807 23.3666 10.2233 23.7086 5.152C23.7273 4.87333 23.5947 4.6 23.3393 4.486Z" fill="#DD2E44"/>
<path d="M22.9847 14.072C22.8487 13.848 22.5913 13.6987 22.332 13.758C21.47 13.9547 20.2007 14.12 19.312 14.06C15.074 13.7747 13.0713 11.3073 13.0507 11.2867C12.8673 11.0987 13.3613 18.988 13.5947 19.004C19.724 19.4173 22.836 14.986 22.966 14.7973C23.114 14.58 23.1213 14.2967 22.9847 14.072Z" fill="#DD2E44"/>
<path d="M16.3906 12.6773C16.1433 16.3507 17.268 19.2513 13.5946 19.0033C9.92132 18.756 6.83132 15.7233 7.07865 12.0493C7.32598 8.37533 16.6386 9.004 16.3906 12.6773Z" fill="#DD2E44"/>
<path d="M15.5047 8.27467C15.2693 11.7647 12.89 14.446 9.40066 14.2107C5.91066 13.9753 3.272 10.956 3.50733 7.466C3.74266 3.976 6.72866 1.83667 10.2187 2.072C12.886 2.25133 15.712 5.194 15.5047 8.27467Z" fill="#DD2E44"/>
<path d="M7.11333 7.32599C7.84971 7.32599 8.44667 6.72904 8.44667 5.99266C8.44667 5.25628 7.84971 4.65933 7.11333 4.65933C6.37695 4.65933 5.78 5.25628 5.78 5.99266C5.78 6.72904 6.37695 7.32599 7.11333 7.32599Z" fill="#292F33"/>
<path d="M12.1193 11.0967C12.1193 11.0967 17.206 14.862 20.3773 8.124C20.6413 7.56267 21.5007 8.65267 20.4433 10.8987C19.386 13.1447 14.9933 15.192 12.4167 11.9227C11.8733 11.2327 12.1193 11.0967 12.1193 11.0967Z" fill="#A0041E"/>
<path d="M10.218 2.07133C10.218 2.07133 14.382 2.24067 15.4167 1.75333C16.4513 1.266 15.5073 3.708 13.242 4.27933C10.9767 4.85067 10.218 2.07133 10.218 2.07133Z" fill="#DD2E44"/>
<path d="M11.6187 3.85866C11.6187 3.85866 14.6193 3.94933 15.6547 3.46266C16.69 2.976 15.7453 5.41733 13.48 5.98866C11.214 6.56 11.6187 3.85866 11.6187 3.85866Z" fill="#DD2E44"/>
</svg>
