<svg width="24" height="24" viewBox="0 0 24 24" fill="none" xmlns="http://www.w3.org/2000/svg">
<path d="M13.336 13.4953C13.052 13.4953 12.764 13.502 12.4733 13.516C12.1827 14.3613 12.1613 15.3473 12.4733 16.914C12.692 18.0113 14.246 21.1133 15.5293 22.2027C15.9847 22.5893 16.6213 22.792 17.3227 22.792C18.752 22.792 20.45 21.9487 21.4273 20.1027C23.428 16.322 19.1113 13.4953 13.336 13.4953Z" fill="#1C6399"/>
<path d="M22.444 1.31533C22.308 1.31533 22.1607 1.32933 22.002 1.35933C19.8807 1.76 15.8007 4.77667 12.4773 9.20667C12.4773 9.20667 11.9513 12.6467 11.9513 13.336C11.9513 13.56 12.794 13.6693 13.99 13.6693C16.468 13.6693 20.4627 13.1993 21.606 12.3087C22.8713 11.3227 24.0393 5.77267 23.9313 2.92267C23.9007 2.13933 23.49 1.31533 22.444 1.31533Z" fill="#1C6399"/>
<path d="M18.0653 9.29067L22.4847 9C22.4847 9 21.7813 11.4127 20.4167 12.104C19.052 12.7953 15.2707 13.104 15.2707 13.104C15.2707 13.104 16.824 10.2633 17.4613 9.57734C17.6193 9.40667 17.834 9.30534 18.0653 9.29067ZM18.412 7.98934L23.4293 2.55534C23.4293 2.55534 23.4307 6.132 22.6253 8.312C22.6253 8.312 19.0367 8.56467 18.6827 8.57267C18.214 8.58334 18.0367 8.396 18.412 7.98934ZM14.3667 13.104L18.0333 7.406C18.0951 7.33383 18.1379 7.24736 18.1578 7.15446C18.1777 7.06156 18.1741 6.96516 18.1473 6.874L17.502 4.71867L13.0207 9.12467L12.458 13.1453L14.3667 13.104ZM18.5747 5.92C18.6893 6.19067 18.9187 6.25334 19.2 6.00334C19.4813 5.75334 23.2493 1.94067 23.2 1.858C23.2 1.858 21.312 1.062 18 4.16667C18 4.16667 18.46 5.64934 18.5747 5.92ZM12.6247 13.986L16.2067 17.4713C16.2723 17.5289 16.3163 17.6071 16.3315 17.693C16.3466 17.779 16.332 17.8675 16.29 17.944L14.7067 20.8333C14.7067 20.8333 11.9153 17.1807 12.6247 13.986ZM17.4793 18.1867L21.1787 18.6807C21.1787 18.6807 20.4733 21.244 18.916 21.9167C16.312 23.042 15.3747 21.5 15.3747 21.5L16.9427 18.4587C16.9915 18.3621 17.0699 18.2836 17.1664 18.2347C17.2629 18.1857 17.3726 18.1689 17.4793 18.1867ZM13.5127 13.9027L17.096 17.208C17.1473 17.252 17.2087 17.2813 17.2753 17.294L21.3547 17.896C21.3547 17.896 20.542 15.8753 18.402 14.8753C15.9287 13.72 13.5127 13.9027 13.5127 13.9027Z" fill="#55ACEE"/>
<path d="M13.336 13.4953C13.052 13.4953 12.764 13.502 12.4733 13.516C12.1827 14.3613 12.1613 15.3473 12.4733 16.914C12.692 18.0113 14.246 21.1133 15.5293 22.2027C15.9847 22.5893 16.6213 22.792 17.3227 22.792C18.752 22.792 20.45 21.9487 21.4273 20.1027C23.428 16.322 19.1113 13.4953 13.336 13.4953ZM20.3607 19.7127C19.4833 21.37 18.3273 22.028 17.322 22.028C16.8107 22.028 16.186 21.8193 15.8887 21.5673C14.7587 20.608 13.5973 18.514 13.0553 16.7513C12.7453 15.7427 12.8193 14.07 12.8193 14.07L13.264 14.056C16.7093 14.056 19.43 15.428 20.4147 17.064C20.8907 17.8547 20.8727 18.746 20.3607 19.7127Z" fill="#292F33"/>
<path d="M22.444 2.14867C22.598 2.14867 23.0673 2.14867 23.098 2.954C23.166 4.74133 22.702 6.99467 22.1667 8.87533C21.806 10.1427 21.1093 11.07 20.7707 11.3333C20.3973 11.624 19.5287 12.1587 18.2913 12.3753C16.938 12.612 15.4867 12.9307 13.9873 12.9307C13.436 12.9307 13.032 12.9433 12.7913 12.9167C12.8787 12.1047 13.1173 10.5493 13.2693 9.54067C15.7813 6.24733 19.7433 2.63333 22.1567 2.178C22.26 2.15867 22.3567 2.14867 22.444 2.14867ZM22.444 1.31533C22.308 1.31533 22.1607 1.32933 22.002 1.35933C19.8807 1.76 15.8007 4.77667 12.4773 9.20667C12.4773 9.20667 11.9513 12.6467 11.9513 13.336C11.9513 13.56 12.794 13.6693 13.99 13.6693C16.468 13.6693 20.4627 13.1993 21.606 12.3087C22.8713 11.3227 24.0393 5.77267 23.9313 2.92267C23.9007 2.13933 23.49 1.31533 22.444 1.31533Z" fill="#292F33"/>
<path d="M2.60134 20.1027C3.57867 21.9487 5.276 22.792 6.706 22.792C7.40734 22.792 8.044 22.5893 8.49934 22.2027C9.78267 21.114 11.3367 18.012 11.5553 16.914C11.8673 15.3473 11.846 14.362 11.5553 13.516C11.268 13.5022 10.9804 13.4953 10.6927 13.4953C4.916 13.4953 0.600003 16.322 2.60134 20.1027Z" fill="#1C6399"/>
<path d="M1.584 1.31533C0.537996 1.31533 0.126663 2.13933 0.0973295 2.922C-0.0106705 5.772 1.15733 11.3227 2.42266 12.308C3.566 13.1987 7.56 13.6687 10.0387 13.6687C11.2347 13.6687 12.0773 13.5593 12.0773 13.3353C12.0773 12.6467 11.5513 9.206 11.5513 9.206C8.22733 4.77667 4.14666 1.76 2.026 1.35933C1.88035 1.33094 1.73238 1.31621 1.584 1.31533Z" fill="#1C6399"/>
<path d="M5.962 9.29067L1.54333 9C1.54333 9 2.24666 11.4127 3.61133 12.104C4.976 12.7953 8.75733 13.104 8.75733 13.104C8.75733 13.104 7.204 10.2633 6.56666 9.57734C6.40965 9.40733 6.19299 9.30462 5.962 9.29067ZM5.616 7.98934L0.598663 2.55534C0.598663 2.55534 0.59733 6.132 1.40266 8.312C1.40266 8.312 4.99133 8.56467 5.34533 8.57267C5.814 8.58334 5.99133 8.396 5.616 7.98934ZM9.66133 13.104L5.99466 7.406C5.93288 7.33383 5.89009 7.24736 5.87018 7.15446C5.85027 7.06156 5.85388 6.96516 5.88066 6.874L6.526 4.71867L11.0073 9.12467L11.57 13.1453L9.66133 13.104ZM5.45266 5.92C5.338 6.19067 5.10866 6.25334 4.82733 6.00334C4.546 5.75334 0.777997 1.94067 0.82733 1.858C0.82733 1.858 2.71533 1.062 6.02733 4.16667C6.028 4.16667 5.56733 5.64934 5.45266 5.92ZM11.4033 13.986L7.82133 17.4713C7.75571 17.5289 7.71169 17.6071 7.69654 17.693C7.68138 17.779 7.69601 17.8675 7.738 17.944L9.32133 20.8327C9.32066 20.8333 12.1127 17.1807 11.4033 13.986ZM6.548 18.1867L2.84866 18.6807C2.84866 18.6807 3.554 21.244 5.11133 21.9167C7.71533 23.042 8.65266 21.5 8.65266 21.5L7.08466 18.4587C7.03601 18.3619 6.95766 18.2833 6.86108 18.2344C6.7645 18.1854 6.65477 18.1687 6.548 18.1867ZM10.5153 13.9027L6.932 17.208C6.88079 17.2519 6.81895 17.2816 6.75266 17.294L2.67333 17.896C2.67333 17.896 3.486 15.8753 5.626 14.8753C8.09866 13.72 10.5153 13.9027 10.5153 13.9027Z" fill="#55ACEE"/>
<path d="M2.60134 20.1027C3.57867 21.9487 5.276 22.792 6.706 22.792C7.40734 22.792 8.044 22.5893 8.49934 22.2027C9.78267 21.114 11.3367 18.012 11.5553 16.914C11.8673 15.3473 11.846 14.362 11.5553 13.516C11.268 13.5022 10.9804 13.4953 10.6927 13.4953C4.916 13.4953 0.600003 16.322 2.60134 20.1027ZM3.61334 17.0633C4.598 15.4273 7.31867 14.0553 10.764 14.0553L11.2087 14.0693C11.2087 14.0693 11.2827 15.7427 10.9727 16.7507C10.4307 18.5133 9.26934 20.6073 8.13934 21.5667C7.842 21.8193 7.21734 22.0273 6.706 22.0273C5.70067 22.0273 4.54467 21.37 3.66734 19.712C3.15534 18.746 3.13734 17.8547 3.61334 17.0633Z" fill="#292F33"/>
<path d="M1.584 2.14867C1.67133 2.14867 1.768 2.15867 1.87133 2.178C4.284 2.63333 8.24666 6.24733 10.7587 9.54067C10.9107 10.5493 11.1493 12.1047 11.2367 12.9167C10.996 12.9433 10.592 12.9307 10.0407 12.9307C8.54133 12.9307 7.09 12.612 5.73666 12.3753C4.49933 12.1587 3.63066 11.624 3.25733 11.3333C2.91866 11.0693 2.222 10.1427 1.86133 8.87533C1.326 6.99467 0.861996 4.74133 0.929996 2.954C0.960663 2.14867 1.42933 2.14867 1.584 2.14867ZM1.584 1.31533C0.537996 1.31533 0.126663 2.13933 0.0973295 2.922C-0.0106705 5.772 1.15733 11.3227 2.42266 12.308C3.566 13.1987 7.56 13.6687 10.0387 13.6687C11.2347 13.6687 12.0773 13.5593 12.0773 13.3353C12.0773 12.6467 11.5513 9.206 11.5513 9.206C8.22733 4.77667 4.14666 1.76 2.026 1.35933C1.88035 1.33094 1.73238 1.31621 1.584 1.31533Z" fill="#292F33"/>
<path d="M14.5913 3.17467C14.5518 3.15277 14.5083 3.13891 14.4634 3.13386C14.4185 3.12882 14.373 3.13269 14.3296 3.14527C14.2861 3.15784 14.2456 3.17887 14.2104 3.20713C14.1751 3.2354 14.1457 3.27036 14.124 3.31L12.2973 6.63C12.2853 6.652 12.2827 6.67533 12.276 6.698C12.1913 6.69333 12.1133 6.686 12.014 6.686C11.9153 6.686 11.8367 6.69267 11.7527 6.698C11.746 6.67533 11.7433 6.652 11.7313 6.63L9.90467 3.31C9.86064 3.22999 9.78664 3.17075 9.69893 3.14531C9.61123 3.11987 9.51701 3.13031 9.437 3.17433C9.357 3.21836 9.29775 3.29236 9.27231 3.38007C9.24687 3.46777 9.25731 3.56199 9.30134 3.642L11.0713 6.85933C10.2853 7.382 11.838 9.15133 11.3253 12.9953C10.6367 18.162 12.014 19.54 12.014 19.54C12.014 19.54 13.392 18.162 12.7027 12.9953C12.19 9.15133 13.7427 7.382 12.9567 6.85933L14.7273 3.642C14.7491 3.60239 14.7629 3.55888 14.7678 3.51395C14.7728 3.46902 14.7688 3.42355 14.7562 3.38015C14.7436 3.33675 14.7225 3.29626 14.6942 3.261C14.6659 3.22574 14.631 3.19641 14.5913 3.17467Z" fill="#292F33"/>
</svg>
