<svg width="24" height="24" viewBox="0 0 24 24" fill="none" xmlns="http://www.w3.org/2000/svg">
<path d="M3.69376 8.56313C3.68626 8.56313 3.67876 8.56313 3.67126 8.56125C3.66001 8.55938 3.37876 8.5275 2.90063 8.44125C2.37938 8.34563 2.03625 8.30625 2.0325 8.30625C1.92 8.29313 1.8375 8.19188 1.85063 8.0775C1.86375 7.965 1.96688 7.8825 2.07938 7.89563C2.09438 7.8975 2.43938 7.93688 2.97563 8.03438C3.43876 8.11875 3.71626 8.15063 3.71813 8.15063C3.83063 8.16375 3.91313 8.265 3.90001 8.37938C3.88688 8.48438 3.79688 8.56313 3.69376 8.56313Z" fill="#888071"/>
<path d="M2.02126 9.38998C1.91814 9.38998 1.82814 9.31311 1.81689 9.20811C1.81375 9.18114 1.81598 9.15381 1.82343 9.12771C1.83089 9.1016 1.84342 9.07722 1.86032 9.05596C1.87722 9.03471 1.89814 9.017 1.9219 9.00386C1.94566 8.99071 1.97178 8.98239 1.99876 8.97936C2.00439 8.97936 2.52564 8.91748 2.79001 8.87436C3.06376 8.83123 3.67876 8.73373 3.67876 8.73373L3.74251 9.14061L2.85564 9.28123C2.58189 9.32623 2.06814 9.38623 2.04564 9.38811C2.03626 9.38811 2.02876 9.38998 2.02126 9.38998Z" fill="#888071"/>
<path d="M2.34562 10.2525C2.25562 10.2525 2.17312 10.1944 2.14687 10.1025C2.11499 9.99374 2.17874 9.87937 2.28937 9.84749L3.76687 9.42562C3.81907 9.41228 3.87442 9.41987 3.92111 9.44675C3.9678 9.47364 4.00215 9.5177 4.01682 9.56955C4.03149 9.62139 4.02533 9.67691 3.99966 9.72428C3.97398 9.77165 3.93082 9.80712 3.87937 9.82312L2.40187 10.245C2.38499 10.2487 2.36437 10.2525 2.34562 10.2525Z" fill="#888071"/>
<path d="M9.99189 15.8269L7.95939 17.385C7.95939 17.385 8.03813 20.6325 7.98563 20.7637C7.93313 20.895 7.22063 21.7144 7.29938 22.1887C7.36126 22.5581 7.64251 22.6894 8.40751 22.7175C9.17251 22.7456 10.7306 22.4006 10.7306 22.4006L9.99189 15.8269Z" fill="#B85C3E"/>
<path d="M15.9581 17.0663L14.4544 17.91C14.4544 17.91 14.6663 18.5438 14.6663 19.4419C14.6663 20.34 14.5875 20.9025 14.535 21.0881C14.4825 21.2738 14.0419 21.6244 14.0869 22.1344C14.1075 22.3706 14.4037 22.5563 14.9306 22.53C15.4575 22.5038 16.2244 22.4513 16.2244 22.4513L16.9894 17.4619L15.9581 17.0663Z" fill="#B85C3E"/>
<path d="M6.23624 5.21436C6.23624 5.21436 5.99062 4.35186 6.20062 2.97936C6.41249 1.60686 6.76312 0.884988 7.09874 0.849363C7.43249 0.813738 8.06624 1.44749 8.55937 2.20499C9.05249 2.96249 9.45749 4.29936 9.45749 4.29936L6.23624 5.21436Z" fill="#FB8B02"/>
<path d="M11.9719 18.2363C11.9719 18.2363 11.9887 19.8206 12.0244 20.5238C12.06 21.2269 12.0263 22.7888 11.8838 22.9613C11.6644 23.2256 11.4431 23.2331 10.9687 23.2519C10.6856 23.2631 11.0569 21.51 11.0569 21.4388C11.0569 21.3675 11.0737 17.1619 11.0737 17.1619L11.9719 18.2363Z" fill="#FB8B02"/>
<path d="M7.27312 12.765C7.27312 12.765 6.85125 14.1019 6.95625 15.105C7.06125 16.1081 7.6425 17.3756 8.22375 17.8856C8.805 18.3956 9.33187 18.66 9.38437 18.7838C9.43687 18.9075 9.64875 20.6494 9.5775 21.0187C9.50625 21.3881 8.99625 22.3388 9.08437 22.7081C9.1725 23.0775 9.52125 23.31 10.4212 23.2894C11.5912 23.2631 11.5294 23.0869 11.6175 22.3575C11.6775 21.8663 11.6006 18.4688 11.6006 18.4688C11.6006 18.4688 12.3225 18.54 13.3425 18.4688C14.3625 18.3975 15.63 17.94 15.63 17.94C15.63 17.94 16.3519 20.1919 16.1044 20.8781C15.8587 21.5644 15.4537 21.9525 15.5231 22.4269C15.5944 22.9013 16.2094 23.1131 16.9669 23.0419C17.7244 22.9706 18.3037 22.4794 18.3394 21.8269C18.375 21.1763 18.3562 17.5688 18.4631 17.2875C18.5681 17.0063 18.9562 16.0388 18.9206 15.0694C18.885 14.1 18.8156 13.7138 18.8156 13.7138C18.8156 13.7138 19.725 13.3669 20.5669 12.7294C21.2081 12.2438 21.69 11.6044 21.9469 10.6519C22.3687 9.08625 21.7894 7.5375 20.6269 7.00875C19.5094 6.50063 18.4087 6.69187 18.375 7.50187C18.3412 8.31188 19.0612 8.13563 19.6069 8.34562C20.1525 8.5575 20.7675 9.525 20.1169 10.4756C19.4662 11.4263 18.3225 11.7244 17.97 11.76C17.6175 11.7956 16.9669 11.25 15.6112 11.2144C14.2556 11.1788 12.3037 12.165 12.2494 12.0413C12.1969 11.9175 14.1844 10.6331 14.325 8.9625C14.4562 7.41375 14.1319 6.69188 14.1319 6.69188C14.1319 6.69188 13.8862 4.07063 13.5337 2.83875C13.1812 1.60688 12.6937 0.691875 12.3769 0.710625C12.06 0.7275 11.04 1.8375 10.6706 2.38313C10.3012 2.92875 9.89625 3.80813 9.89625 3.80813C9.89625 3.80813 8.32125 3.75 7.62562 4.00125C6.99187 4.23 6.27 4.61625 5.8125 5.33813C5.355 6.06 5.21437 6.48188 5.0025 6.58688C4.79062 6.69188 3.7875 6.90375 3.69937 7.0275C3.61125 7.15125 3.3825 8.78813 3.435 9.03375C3.4875 9.27938 3.52875 9.85313 3.82125 10.1775C4.155 10.5469 5.07937 11.1713 5.81062 11.6381C6.5175 12.0881 7.20375 12.4481 7.27312 12.765Z" fill="#FFB800"/>
<path d="M13.7588 14.4881C14.4094 14.4787 14.3925 13.6969 14.4019 12.7275C14.4094 11.88 14.3756 11.3812 14.3756 11.3812C14.3756 11.3812 14.0025 11.4319 13.6725 11.5575C13.3463 11.6812 13.065 11.7956 13.065 11.7956V13.1587C13.0631 13.6256 13.1156 14.4975 13.7588 14.4881Z" fill="#FF9B31"/>
<path d="M14.9025 11.2594C14.9025 11.2594 14.9025 12.0769 14.9119 12.7725C14.9212 13.5206 14.85 14.3306 15.5981 14.3213C16.2412 14.3138 16.2412 13.4944 16.2487 12.57C16.2525 12.0863 16.2656 11.2594 16.2656 11.2594C16.2656 11.2594 15.9487 11.1975 15.57 11.2069C15.2719 11.2144 14.9025 11.2594 14.9025 11.2594Z" fill="#FF9B31"/>
<path d="M8.40189 7.69124C8.26501 8.02312 7.97063 8.49749 7.48501 8.37374C7.17376 8.29499 7.15126 7.62562 7.33313 7.22812C7.54876 6.75937 7.83564 6.5475 8.17126 6.58687C8.54064 6.63187 8.57626 7.26562 8.40189 7.69124Z" fill="#2C312C"/>
<path d="M5.18812 7.59C5.17874 7.37812 4.63312 7.23 4.21124 7.07062C3.85312 6.9375 3.65624 6.93 3.56062 7.01812C3.46499 7.10625 3.34874 7.335 3.29624 7.6875C3.24374 8.04 3.26249 8.63625 3.34874 9.0075C3.43687 9.38625 3.57749 9.86062 4.20187 10.1081C4.73812 10.32 5.05499 10.0294 5.28374 9.87C5.57437 9.66937 5.44874 9.19312 5.03812 9.43875C4.73062 9.62437 4.51874 9.67687 4.28062 9.50062C3.95437 9.25875 3.87562 8.5425 3.90187 8.48062C4.01624 8.2125 4.47374 8.14687 4.65937 8.07562C4.84499 8.00437 5.19749 7.77562 5.18812 7.59Z" fill="#2C312C"/>
<path d="M8.87624 9.45938H8.86124C8.85562 9.45938 8.26312 9.41625 7.89374 9.40688L6.83812 9.38063C6.83812 9.38063 6.61687 9.39938 6.61687 9.18188C6.61687 8.95125 6.84749 8.98688 6.84749 8.98688L7.90312 9.01313C8.28187 9.0225 8.86499 9.06375 8.88937 9.06563C8.99812 9.07313 9.07874 9.16875 9.07124 9.27563C9.06374 9.38063 8.97749 9.45938 8.87624 9.45938Z" fill="#888071"/>
<path d="M8.54062 10.7438C8.5125 10.7438 8.4825 10.7381 8.45625 10.725C8.4525 10.7231 7.98562 10.5 7.56375 10.3556C7.125 10.2075 6.63375 10.0481 6.63375 10.0481C6.53062 10.0144 6.4725 9.90377 6.50625 9.80064C6.54 9.69751 6.65062 9.63939 6.75375 9.67314C6.75375 9.67314 7.24875 9.83252 7.68937 9.98252C8.13562 10.1344 8.60625 10.3594 8.62687 10.3706C8.72437 10.4175 8.76562 10.5356 8.71875 10.6331C8.685 10.7025 8.61375 10.7438 8.54062 10.7438Z" fill="#888071"/>
<path d="M7.58251 11.475C7.54501 11.475 7.50563 11.4637 7.47188 11.4412C7.46813 11.4394 7.13813 11.2144 6.91688 11.0775C6.68626 10.9369 6.27188 10.6706 6.27188 10.6706C6.27188 10.6706 6.08626 10.5619 6.20626 10.3894C6.32626 10.2169 6.48376 10.3369 6.48376 10.3369C6.48376 10.3369 6.89626 10.5994 7.12313 10.74C7.35376 10.8806 7.68001 11.1056 7.69501 11.115C7.78501 11.1769 7.80751 11.2987 7.74563 11.3887C7.70626 11.445 7.64438 11.475 7.58251 11.475Z" fill="#888071"/>
<path d="M12.0656 2.31187C11.9756 2.28 11.3925 2.95875 11.1019 3.63187C10.8112 4.305 10.7062 4.67437 10.7325 4.7925C10.7437 4.845 11.0794 5.13562 11.5762 5.53125C12.0919 5.94 12.42 6.19125 12.5662 6.17812C12.7106 6.165 12.7519 5.04375 12.6319 4.0275C12.5119 3.01125 12.21 2.36437 12.0656 2.31187Z" fill="#FED0AB"/>
</svg>
