<svg width="24" height="24" viewBox="0 0 24 24" fill="none" xmlns="http://www.w3.org/2000/svg">
<path d="M12.6667 21.3333C12.6667 22 11.518 23.3333 10.444 23.3333C9.37068 23.3333 9.33334 22.438 9.33334 21.3333C9.33334 20.2287 10.204 19.3333 11.2773 19.3333C12.3513 19.3333 12.6667 20.2287 12.6667 21.3333ZM20 21.3333C20 22 18.8513 23.3333 17.7773 23.3333C16.704 23.3333 16.6667 22.438 16.6667 21.3333C16.6667 20.2287 17.5373 19.3333 18.6107 19.3333C19.6847 19.3333 20 20.2287 20 21.3333Z" fill="#3E721D"/>
<path d="M24 16.6667C24 12.6667 21.8853 10.5527 20 8.66665C19.3333 7.99999 19.0673 8.88065 19.3333 9.33332C19.672 9.90799 21.3333 14.6667 18 14.6667H16.6667C13.3333 14.6667 12.552 13.8853 10.6667 12C7.66667 8.99999 6 12 4.66667 12C0.666667 12 0 10.792 0 13.3333C0 15.3333 2 16 4 16C6 16 6 16.6667 7.33333 18.6667C8.04733 19.7373 9.224 20.8073 10.682 21.4367C10.8367 22.1827 12.5313 24 13.556 24C14.6293 24 14.6667 23.1047 14.6667 22H18C18.0227 22 18.044 21.9933 18.0673 21.9933C18.2613 21.9967 18.4587 22 18.6667 22C18.6667 22.6667 19.8153 24 20.8893 24C21.9627 24 22 23.1047 22 22C22 21.7987 21.962 21.6087 21.9087 21.426C23.0747 20.7953 24 19.4727 24 16.6667Z" fill="#5C913B"/>
<path d="M6.66666 12.082C6.66666 12.3472 6.77201 12.6016 6.95955 12.7891C7.14709 12.9766 7.40144 13.082 7.66666 13.082C7.93187 13.082 8.18623 12.9766 8.37376 12.7891C8.5613 12.6016 8.66666 12.3472 8.66666 12.082C8.66666 11.5293 8.21932 12.082 7.66666 12.082C7.11399 12.082 6.66666 11.5293 6.66666 12.082Z" fill="#292F33"/>
<path d="M18.3333 16.6667C18.8856 16.6667 19.3333 16.3682 19.3333 16C19.3333 15.6318 18.8856 15.3333 18.3333 15.3333C17.7811 15.3333 17.3333 15.6318 17.3333 16C17.3333 16.3682 17.7811 16.6667 18.3333 16.6667Z" fill="#77B255"/>
<path d="M15.6667 16.6667C16.2189 16.6667 16.6667 16.3682 16.6667 16C16.6667 15.6318 16.2189 15.3333 15.6667 15.3333C15.1144 15.3333 14.6667 15.6318 14.6667 16C14.6667 16.3682 15.1144 16.6667 15.6667 16.6667Z" fill="#77B255"/>
<path d="M13 16.6667C13.5523 16.6667 14 16.3682 14 16C14 15.6318 13.5523 15.3333 13 15.3333C12.4477 15.3333 12 15.6318 12 16C12 16.3682 12.4477 16.6667 13 16.6667Z" fill="#77B255"/>
<path d="M14.3333 18C14.8856 18 15.3333 17.7015 15.3333 17.3334C15.3333 16.9652 14.8856 16.6667 14.3333 16.6667C13.7811 16.6667 13.3333 16.9652 13.3333 17.3334C13.3333 17.7015 13.7811 18 14.3333 18Z" fill="#77B255"/>
<path d="M17 18C17.5523 18 18 17.7015 18 17.3334C18 16.9652 17.5523 16.6667 17 16.6667C16.4477 16.6667 16 16.9652 16 17.3334C16 17.7015 16.4477 18 17 18Z" fill="#77B255"/>
<path d="M3.99999 14.6667C3.74066 14.6667 3.33332 14 3.33332 14H4.66666C4.66666 14 4.25932 14.6667 3.99999 14.6667ZM2.66666 14.9793C2.40732 14.9793 1.99999 14 1.99999 14H3.33332C3.33332 14 2.92599 14.9793 2.66666 14.9793ZM1.33332 15.3333C1.07399 15.3333 0.666656 14 0.666656 14H1.99999C1.99999 14 1.59266 15.3333 1.33332 15.3333Z" fill="white"/>
</svg>
