<svg width="24" height="24" viewBox="0 0 24 24" fill="none" xmlns="http://www.w3.org/2000/svg">
<path d="M11.7356 2.54813C11.7356 2.54813 12.0787 1.75688 12.8569 1.25438C13.2356 1.01063 13.8975 0.633755 14.0175 0.84563C14.07 0.937505 13.8994 1.17563 13.7269 1.54501C13.6575 1.69688 13.5019 2.19188 13.5019 2.19188C13.5019 2.19188 14.1881 1.29376 15.39 1.05751C16.335 0.870005 17.3569 0.99188 17.475 1.20188C17.6025 1.42876 16.9331 1.92751 16.7231 2.36251C16.5131 2.79751 16.3537 3.35251 16.3537 3.35251C16.3537 3.35251 17.6194 2.75438 17.9381 2.62688C18.3337 2.46938 19.1925 2.13938 19.3106 2.28376C19.4287 2.42813 18.9319 3.26626 18.8231 3.41813C18.6919 3.60376 18.4931 3.94688 18.4931 3.94688C18.4931 3.94688 19.1006 3.66938 19.3369 3.52501C19.575 3.38063 20.1019 2.97001 20.2219 3.05063C20.34 3.12938 20.34 3.93188 20.2612 4.27876C20.1562 4.74001 19.6669 5.24251 19.6669 5.24251C19.6669 5.24251 20.3662 5.40001 20.7487 5.88938C21.1312 6.37876 21.3544 6.75938 21.5137 7.24876C21.7519 7.97438 21.8569 8.96438 21.8044 9.15001C21.7519 9.33563 21.4612 9.08438 20.9194 9.04501C20.5987 9.02063 20.5237 9.01875 20.5237 9.01875C20.5237 9.01875 20.8294 9.38251 20.9719 9.71813C21.1575 10.1531 21.36 10.8394 21.4725 11.13C21.5906 11.4338 21.6844 11.6719 21.855 12.015C21.9056 12.1163 21.4987 12.2138 21.09 11.8294C20.9531 11.7019 20.7862 11.5781 20.7862 11.5781C20.7862 11.5781 21.0281 13.0163 21.0112 13.98C20.9981 14.6925 20.8387 15.9863 20.6287 16.1044C20.4169 16.2225 19.995 15.3131 19.995 15.3131C19.995 15.3131 19.8112 16.3481 19.5994 17.0419C19.3481 17.8594 19.11 18.2419 18.9656 18.7313C18.7931 19.3125 18.6225 19.7344 18.5044 19.5488C18.4012 19.3894 18.2925 19.14 18.1875 18.9544C18.1069 18.8138 17.9231 18.4388 17.9231 18.4388C17.9231 18.4388 17.7375 19.56 16.8412 20.3138C15.945 21.0675 15.3637 21.6731 14.94 21.7256C14.6906 21.7575 14.9794 20.6306 14.9794 20.6306C14.9794 20.6306 13.5806 21.7294 12.9075 22.2281C12.6037 22.4531 12.3262 23.1919 12.1162 23.1394C11.9044 23.0869 11.3644 22.2675 11.0212 22.0181C10.6781 21.7688 10.0312 21.4763 9.93937 21.4238C9.8475 21.3713 9.41062 21.0938 9.41062 21.0938C9.41062 21.0938 9.51937 21.7069 9.3975 21.7669C9.13312 21.8981 8.11687 21.1725 7.82625 20.7244C7.53562 20.2763 7.02187 19.3519 7.02187 19.3519C7.02187 19.3519 6.95625 20.2369 6.74437 20.0906C6.51937 19.9369 5.42437 19.1269 5.04187 18.5194C4.77187 18.09 4.30312 16.8825 4.30312 16.8825C4.30312 16.8825 3.89437 17.3044 3.77437 17.3569C3.65437 17.4094 3.3525 17.5294 3.405 17.0663C3.4575 16.605 3.09562 15.5588 3.03562 14.9288C2.95687 14.1113 3.11437 13.2656 3.11437 13.2656C3.11437 13.2656 2.44125 14.1638 2.12437 14.1506C1.8075 14.1375 1.99312 12.4088 2.07187 11.88C2.15062 11.3513 2.415 10.4288 2.52 10.0988C2.625 9.76876 3.02062 9.28126 3.02062 9.28126C3.02062 9.28126 2.04375 9.61126 1.89937 9.48001C1.755 9.34876 1.97812 8.17313 2.11125 7.46063C2.17875 7.09501 2.4675 6.52313 2.83687 6.10126C3.20625 5.67938 3.77437 5.75813 3.82687 5.57251C3.87937 5.38688 3.61687 5.24063 3.43125 4.93876C3.15375 4.49063 2.99625 3.56626 3.14062 3.40688C3.23062 3.30938 3.735 3.69751 4.3425 3.76313C4.95 3.82876 5.49 3.78938 5.49 3.78938C5.49 3.78938 5.13937 3.37688 4.98937 3.03751C4.7775 2.56313 4.76437 1.99501 4.8975 1.84876C5.03062 1.70251 5.49187 2.15251 6.1125 2.31001C6.73312 2.46751 7.6575 2.48251 7.6575 2.48251C7.6575 2.48251 7.26187 2.06063 7.15687 1.57126C7.05187 1.08376 7.07812 0.780005 7.24875 0.727505C7.42125 0.675005 7.92375 1.14563 8.27812 1.25626C8.66062 1.37438 9.95437 1.29563 10.5356 1.46813C11.1169 1.64063 11.7356 2.54813 11.7356 2.54813Z" fill="#865C50"/>
<path d="M15.9056 6.6675C15.9056 6.6675 18.1763 4.50375 19.4963 6.1125C21.0619 8.02313 16.9088 10.125 16.9088 10.125L15.9056 6.6675Z" fill="#FEC000"/>
<path d="M7.9875 7.22063C7.9875 7.22063 5.87062 4.44563 4.31437 5.94938C2.75812 7.45313 5.98125 9.75376 5.98125 9.75376L7.9875 7.22063Z" fill="#FEC000"/>
<path d="M17.8594 8.51439C17.8594 8.51439 19.5225 7.35376 18.8363 6.61314C18.1031 5.82376 16.7513 7.19439 16.7513 7.19439L17.8594 8.51439Z" fill="#FF8E06"/>
<path d="M7.02002 7.28812C7.02002 7.28812 5.6419 5.92312 4.9294 6.76687C4.28815 7.52625 6.11815 8.985 6.11815 8.985L7.02002 7.28812Z" fill="#FF8E06"/>
<path d="M12.1313 16.7756C12.1313 16.7756 13.4775 16.4063 14.3213 15.9844C15.165 15.5625 18.3075 13.7944 18.5438 11.6288C18.7819 9.465 18.5438 8.88375 17.5406 7.56375C16.5375 6.24375 14.7788 5.94 13.8713 6.13875C12.7894 6.37688 12.6038 7.16625 12.1294 7.19438C11.6813 7.22063 11.8125 6.72 10.5188 6.24375C8.86313 5.63438 4.33125 7.26563 5.13375 11.6288C5.55563 13.9256 8.9025 15.885 9.33 16.1156C10.3631 16.6706 12.1313 16.7756 12.1313 16.7756Z" fill="#FEC000"/>
<path d="M15.5543 9.56842C15.7163 9.16144 15.5239 8.70269 15.1246 8.54377C14.7254 8.38485 14.2704 8.58594 14.1084 8.99293C13.9464 9.39991 14.1388 9.85866 14.5381 10.0176C14.9373 10.1765 15.3923 9.9754 15.5543 9.56842Z" fill="#2E2F2F"/>
<path d="M9.45353 9.93567C9.86313 9.7691 10.0576 9.2958 9.88792 8.87853C9.71823 8.46126 9.24863 8.25802 8.83903 8.42459C8.42943 8.59116 8.23494 9.06446 8.40464 9.48174C8.57433 9.89901 9.04393 10.1022 9.45353 9.93567Z" fill="#2E2F2F"/>
<path d="M12.0956 10.6875C10.4944 10.6387 9.08624 12.4481 9.08624 15.4556C9.08624 18.3769 10.635 19.0631 11.8837 19.0631C13.4681 19.0631 14.9625 18.0244 14.7881 15.1912C14.625 12.57 13.8019 10.74 12.0956 10.6875Z" fill="#FFD899"/>
<path d="M10.23 12.3412C10.0725 12.4987 10.3706 13.3612 10.635 13.8019C10.8994 14.2425 11.655 14.9625 12.0787 14.9456C12.5006 14.9287 13.2937 14.0475 13.5394 13.3969C13.785 12.7462 13.8562 12.3412 13.7512 12.1819C13.6462 12.0225 12.3956 12.2175 11.9212 12.2175C11.4469 12.2175 10.3894 12.1837 10.23 12.3412Z" fill="#2E2F2F"/>
<path d="M12.0431 14.34C12.0431 14.34 11.3625 15.0806 11.0663 15.1931C10.6519 15.3506 10.0106 15.2156 9.99189 15.4706C9.97502 15.735 10.3875 16.0125 11.0475 15.9244C11.7769 15.8269 12.0506 15.3787 12.0506 15.3787C12.0506 15.3787 12.465 15.9675 13.2656 16.0031C14.0663 16.0387 14.2519 15.5287 14.0306 15.4575C13.7306 15.3619 13.5431 15.3806 13.0894 15.2381C12.7294 15.1219 12.0431 14.34 12.0431 14.34Z" fill="#2E2F2F"/>
</svg>
