<svg width="24" height="24" viewBox="0 0 24 24" fill="none" xmlns="http://www.w3.org/2000/svg">
<path d="M10.1362 4.82812C10.1362 4.82812 12.2569 4.92375 14.3212 5.35688L15.7181 6.29438L14.6775 8.63813L12.3525 9.19313L10.0087 7.7175L8.9325 5.895L10.1362 4.82812Z" fill="#B89278"/>
<path d="M2.99811 7.79062L3.27748 7.43812L3.46873 6.21562L4.76061 5.33624L5.26311 5.65687C5.26311 5.65687 5.46936 5.59499 6.09186 5.37749L6.98436 6.26624L4.78686 9.21562L2.95123 8.93062L2.99811 7.79062Z" fill="#B89278"/>
<path d="M21.4519 11.9212C21.3581 11.2369 21.1462 10.5506 20.8369 9.90375C20.3813 8.95125 19.7156 8.085 18.9281 7.44375C18.2738 6.91125 17.5088 6.58125 16.7644 6.19687C15.9731 5.78812 15.1706 5.53312 14.3231 5.35687C14.46 5.59687 14.5012 5.92875 14.5219 6.15C14.5706 6.66375 14.4075 6.975 14.1169 7.36125C13.8038 7.77937 13.2487 8.505 12.63 8.28C12.1575 8.1075 11.9606 7.44562 11.5087 7.20375C11.2444 7.06312 10.9744 7.0125 10.7269 6.86812C10.3969 6.67312 10.0988 6.32437 9.99 5.955C9.93563 5.77687 9.9525 5.53125 9.99938 5.29687C10.0256 5.16562 10.0575 4.97437 10.1363 4.83C9.55313 4.81125 8.98875 4.8225 8.48063 4.8525C7.66875 4.89937 6.85313 5.06812 6.09188 5.37937C6.0975 5.48437 6.32813 6.15562 5.56875 6.60562C5.32313 6.75 5.05688 6.81187 4.79625 6.95812C4.43813 7.16062 4.33313 7.78312 3.945 7.90312C3.48188 8.0475 3.14813 7.83937 2.99813 7.79062C2.33813 8.57812 1.76063 9.44437 1.23 10.2937C0.129375 12.06 -0.45 14.4281 0.586875 16.3631C1.48875 18.0469 3.20813 18.9112 5.03438 19.3537C5.1075 19.65 5.16938 19.9481 5.22375 20.2462C5.27063 20.5106 5.34563 20.7731 5.36625 21.0412C5.38875 21.3431 5.36625 21.54 5.6775 21.6731C5.92875 21.7819 6.21562 21.7894 6.48563 21.81C6.9975 21.8512 7.65188 21.8662 7.7025 21.2231C7.73438 20.8087 7.70062 19.95 8.22563 19.8112C8.295 19.7925 8.37375 19.7812 8.4525 19.7737C8.565 19.7737 8.6775 19.7756 8.79187 19.7719C9.1125 19.8 9.435 19.9031 9.65438 20.0644C9.97688 20.3044 10.095 20.6925 10.2094 21.06C10.26 21.2175 10.2956 21.3694 10.3181 21.5344C10.3519 21.7631 10.3519 22.0106 10.4081 22.2319C10.4719 22.4869 10.7081 22.5431 10.9369 22.5956C11.5463 22.7344 12.3169 22.7475 12.7931 22.2769C12.9094 22.1606 12.8812 22.0462 12.8812 21.8981C12.8812 21.4144 12.7594 20.4937 13.0912 20.0906C13.1812 19.9819 13.3106 19.9556 13.4456 19.9556C13.5262 19.9669 13.6069 19.9725 13.6875 19.9819C14.0081 20.19 14.0025 20.7 14.1506 21.0319C14.2481 21.2494 14.8144 21.2475 15.0112 21.2569H15.0244C15.3769 21.2719 15.8437 21.255 16.0819 20.9494C16.23 20.7619 16.1963 20.5612 16.215 20.34C16.23 20.13 16.2262 19.8469 16.395 19.6969C16.4137 19.6781 16.4381 19.6744 16.4606 19.6631C16.5338 19.6462 16.6106 19.6294 16.6875 19.6256C16.7362 19.6237 16.7831 19.6256 16.8263 19.6312C17.0662 19.6631 17.2575 19.8019 17.3831 20.0081C17.4394 20.1037 17.4994 20.2181 17.5144 20.3269C17.535 20.4637 17.5931 20.58 17.6213 20.715C17.6456 20.8219 17.6663 20.925 17.6925 21.0319C17.7281 21.1669 17.8106 21.2831 17.9194 21.3694C18.3019 21.6806 19.5713 21.7125 19.9219 21.3075C20.0063 21.2081 20.04 21.0469 20.0569 20.9212C20.085 20.6944 20.0775 20.4562 20.0981 20.2256C20.13 19.9144 20.1769 19.6087 20.2275 19.2956C20.2744 18.9975 20.3438 18.7031 20.4225 18.4125C20.7487 17.2087 21.2775 16.0444 21.4275 14.7956C21.54 13.8412 21.5813 12.8737 21.4519 11.9212Z" fill="#FCD4B5"/>
<path d="M13.2806 19.9781C13.2806 19.9781 14.4 19.3144 16.8244 19.6312L16.74 21.2681L13.2506 21.6319L13.2806 19.9781Z" fill="#B89278"/>
<path d="M2.69999 13.1606C2.72812 13.1288 2.75812 13.0969 2.78624 13.065C3.28312 12.5663 3.89437 12.4181 4.59562 12.4088C4.64624 12.4069 4.69874 12.4069 4.75124 12.4088C5.61374 12.4388 6.65999 12.8344 7.06687 13.6388C7.44187 14.3794 7.35749 15.6656 6.42187 15.975C6.24374 16.0331 6.04312 16.08 5.83687 16.1175C5.46749 16.185 5.06624 16.2188 4.66312 16.2056C4.29187 16.1925 3.92062 16.14 3.57562 16.0444C3.23249 15.9488 2.91562 15.81 2.65312 15.6225C1.84499 15.045 2.14124 13.8 2.69999 13.1606Z" fill="#F79329"/>
<path d="M4.24125 14.3419C4.26 13.8244 4.18875 13.4006 3.85125 13.3875C3.51188 13.3763 3.4125 13.7925 3.39563 14.3119C3.37688 14.8294 3.44625 15.255 3.78563 15.2663C4.12313 15.2775 4.2225 14.8594 4.24125 14.3419Z" fill="#2F2F2F"/>
<path d="M5.63061 15.3319C5.96999 15.3431 6.06936 14.925 6.08811 14.4075C6.10499 13.89 6.03561 13.4663 5.69811 13.4531C5.35874 13.4419 5.26124 13.8581 5.24249 14.3775C5.22374 14.895 5.29311 15.3206 5.63061 15.3319Z" fill="#2F2F2F"/>
<path d="M2.57624 11.1206C2.81249 10.6275 3.33187 10.3912 3.73499 10.5956C4.13999 10.7981 4.27687 11.3644 4.04249 11.8575C3.80624 12.3525 3.28499 12.585 2.88374 12.3862C2.47874 12.1819 2.34187 11.6137 2.57624 11.1206Z" fill="#2F2F2F"/>
<path d="M9.39563 12.8194C8.92688 12.9187 8.45813 12.5419 8.34563 11.9719C8.23501 11.4037 8.52751 10.8562 8.99438 10.7569C9.46501 10.6537 9.93376 11.0362 10.0463 11.6025C10.155 12.1744 9.86438 12.7181 9.39563 12.8194Z" fill="#2F2F2F"/>
<path d="M10.6575 5.18624C11.0231 4.15499 12.8494 4.50374 13.4663 5.04937C13.9988 5.51812 14.0906 6.43499 13.7044 7.04062C13.5731 7.24687 13.4156 7.49624 13.1906 7.60687C12.5831 7.90687 12.3863 7.19437 12.0225 6.89624C11.8219 6.73124 11.5931 6.60187 11.3606 6.48562C10.8413 6.22687 10.44 5.80499 10.6575 5.18624Z" fill="#FCD4B5"/>
<path d="M5.26501 5.19001C4.39314 4.93876 3.21001 5.49751 2.92126 6.36001C2.80501 6.70126 2.85376 6.90751 3.05251 7.19251C3.17064 7.35938 3.41251 7.62188 3.64501 7.57501C3.88876 7.52251 4.01439 7.09688 4.17751 6.92438C4.42126 6.66751 4.71564 6.47626 5.02689 6.31126C5.25376 6.19126 5.79564 5.94563 5.69626 5.60438C5.63251 5.37563 5.47126 5.24813 5.26501 5.19001Z" fill="#FCD4B5"/>
<path d="M23.9344 11.1994C23.895 11.1338 23.8106 11.16 23.7506 11.1731C23.625 11.2013 23.5069 11.2556 23.3775 11.2556C23.3531 11.2556 23.3044 11.2594 23.2837 11.2463C23.2481 11.2238 23.2931 11.1244 23.2987 11.0944C23.3119 11.04 23.3212 10.9819 23.325 10.9238C23.3362 10.815 23.325 10.7025 23.2856 10.5975C23.2181 10.4156 23.085 10.2581 22.92 10.155C22.7081 10.0238 22.4494 9.97876 22.2075 10.0181C21.8325 10.0781 21.5344 10.4119 21.4631 10.7738C21.4462 10.8638 21.4519 10.9594 21.4706 11.0475C21.4819 11.1019 21.5137 11.1506 21.54 11.1975C21.5494 11.2163 21.6056 11.2725 21.5906 11.2931C21.5756 11.3138 21.48 11.3025 21.4575 11.2988C21.3656 11.2894 21.2775 11.2575 21.1912 11.2181C21.1106 11.1806 21.0356 11.1356 20.9644 11.0813C20.8969 11.0288 20.8294 10.9294 20.7375 10.9238C20.6606 10.9181 20.5837 11.0044 20.5369 11.0569C20.43 11.1769 20.4019 11.34 20.3812 11.4956C20.3625 11.6325 20.3381 11.7788 20.3887 11.9119C20.4319 12.0188 20.505 12.1144 20.5987 12.1819C20.8031 12.3263 21.0637 12.3994 21.3375 12.4144C21.7087 12.4331 22.0931 12.3506 22.4194 12.1706C22.4925 12.1294 22.5637 12.0844 22.6294 12.03C22.6687 11.9981 22.7025 11.9569 22.7456 11.9306C22.8112 11.8894 22.8994 11.9081 22.9706 11.9044C23.0644 11.9006 23.1581 11.8931 23.2519 11.8763C23.4975 11.8313 23.7562 11.6981 23.8912 11.4788C23.9362 11.4056 23.9869 11.2856 23.9344 11.1994ZM22.6631 10.9519C22.6519 10.9913 22.635 11.0288 22.62 11.0663C22.5469 11.0813 22.4231 11.0531 22.3575 11.0175C22.2544 10.9631 22.2094 10.8413 22.275 10.74C22.3519 10.6238 22.5056 10.605 22.6069 10.7006C22.6687 10.7606 22.6856 10.8713 22.6631 10.9519Z" fill="#FCD4B5"/>
</svg>
