<svg width="24" height="24" viewBox="0 0 24 24" fill="none" xmlns="http://www.w3.org/2000/svg">
<path d="M20.4022 19.5101C20.8886 19.3892 21.1977 18.9483 21.0926 18.5252C20.9875 18.1021 20.5079 17.8571 20.0215 17.9779C19.5351 18.0988 19.226 18.5397 19.3311 18.9628C19.4362 19.3859 19.9158 19.6309 20.4022 19.5101Z" fill="#B0BEC5"/>
<path d="M14.3362 11.6288C14.4844 11.6288 14.6006 11.73 14.6569 11.985C14.6906 12.1369 14.7094 12.2925 14.73 12.4463C14.7919 12.9206 14.9044 13.3313 15.2587 13.6706C15.5475 13.9425 15.8456 14.1675 16.1156 14.4638C16.8919 15.3113 18.1837 15.5663 19.0012 16.47C19.5525 17.0756 19.9406 17.8388 20.1562 18.6263C20.4019 19.5206 20.5725 20.5238 20.3494 21.4388C20.04 22.7119 18.9394 22.9088 17.7844 23.1319C16.8787 23.3063 12.7819 23.7638 12.2681 23.7638H12.1612C11.9719 23.76 11.5331 23.7769 11.3531 23.5725C11.205 23.385 11.2312 22.8863 11.2519 22.7213C11.2669 22.185 11.2687 21.5963 11.1581 21.4613C11.1056 21.3938 10.8469 21.3694 10.8169 21.5644C10.755 21.9188 10.7194 22.7738 10.7475 23.16C10.8 23.91 9.88124 23.7788 9.23999 23.7788C8.83874 23.7788 8.43749 23.7319 8.25562 23.4188C8.10937 23.1075 8.34937 22.1456 8.34187 21.7781C8.32687 21.015 8.24812 20.1694 8.09999 19.4194C8.03249 19.0781 7.94624 18.7425 7.82624 18.4163C7.76249 18.24 7.41749 17.7038 7.47374 17.5313C7.52999 17.355 7.70062 17.3719 7.83187 17.3063C7.98937 17.2294 8.09249 17.1075 8.22749 16.9931C8.60249 16.6706 8.98874 16.3575 9.36937 16.0425C10.1269 15.4106 10.8862 14.7788 11.6437 14.1469C11.955 13.8881 12.3356 13.6444 12.5644 13.3106C12.7612 13.0238 13.7812 11.6288 14.3362 11.6288Z" fill="#E0E0E0"/>
<path d="M13.4137 23.6681C13.8712 23.5706 13.6594 22.7775 13.6612 22.2469C13.6612 22.1662 13.7025 21.6937 14.3325 21.5044C14.5575 21.4369 14.8106 21.4519 14.9925 21.3019C15.2812 21.0637 15.3694 20.6775 15.5362 20.3437C15.7875 19.8412 16.5656 19.425 16.8825 19.5544C16.9612 19.5862 16.5337 19.7381 16.3725 19.8525C16.2656 19.9294 16.1606 20.0119 16.0819 20.1187C15.8006 20.4994 15.7875 21.0694 15.525 21.4631C15.3375 21.7444 14.715 21.6975 14.4581 21.9206C14.1919 22.1512 14.175 22.6837 14.325 23.0025C14.4112 23.1862 14.6512 23.5069 15.1819 23.4769C15.1837 23.4769 13.83 23.625 13.4137 23.6681Z" fill="#B0BEC5"/>
<path d="M8.30812 21.0244C8.51249 20.2125 9.49124 19.9762 9.94124 19.9687C11.6325 19.9462 12.5719 19.65 13.8356 19.2487C14.6887 18.9787 16.1006 18.0769 16.3931 16.92C16.4306 16.77 16.3387 16.5487 16.185 16.575C15.8231 16.8431 15.8981 17.3119 12.9412 18.285C11.6156 18.72 8.63811 18.525 7.73624 18.2137C7.92749 18.6225 8.05874 19.1475 8.13562 19.5825L8.30812 21.0244Z" fill="#B0BEC5"/>
<path d="M15.1631 9.77251C15.1575 10.3819 15.4912 11.4806 15.7312 11.9756C16.0894 12.7106 16.4062 13.4831 16.5356 14.2931C16.7081 15.3694 16.5637 16.5131 15.7481 17.2894C14.4956 18.4781 12.8362 19.0144 11.1337 19.0631C11.0512 19.065 10.9669 19.0669 10.8806 19.0669C8.68124 19.0669 5.29686 18.2906 4.56561 15.9506C4.34999 15.2625 4.42311 14.2181 4.71561 13.56C5.07936 12.7388 5.22561 11.7169 5.62124 10.8225C5.87811 10.2394 6.24186 9.61689 6.76874 9.23626C6.92999 9.12189 7.16999 9.02439 7.18874 8.80126C7.20936 8.55564 6.94874 8.16376 6.81936 7.96501C5.83499 6.41814 4.45124 5.19376 3.23811 3.83439C2.98874 3.55501 2.84061 3.18189 2.69061 2.83126C2.54624 2.49751 2.50499 2.14876 2.50686 1.78126C2.50686 1.17001 2.99436 0.682511 3.54374 0.480011C4.11374 0.270011 4.78499 0.363761 5.34749 0.547511C5.74311 0.675011 6.11436 0.871886 6.45374 1.11001C7.51686 1.86001 8.43749 2.87814 9.02624 4.04064C9.66749 5.30064 9.75936 6.65814 10.0594 8.01751C10.1194 8.29501 10.1831 8.36814 10.4831 8.36814C10.8037 8.36814 11.1262 8.40001 11.445 8.41126C11.625 8.41689 11.8387 8.43939 12 8.34189C12.3881 8.10939 12.4687 7.31814 12.5869 6.91689C13.1044 5.14501 13.575 2.82376 14.8087 1.37064C15.1181 1.00689 15.5156 0.691886 15.9469 0.478136C16.0162 0.442511 16.0987 0.410636 16.1869 0.378761C16.6875 0.206261 17.31 0.140636 17.8031 0.376886C18.6225 0.766886 18.615 1.87314 18.4762 2.63439C18.3019 3.58876 17.5444 4.95564 17.07 5.78251C16.6312 6.54376 15.1706 8.82563 15.1631 9.77251Z" fill="#E0E0E0"/>
<path d="M7.62187 13.3612C7.15874 13.3575 6.78187 13.7944 6.77999 14.3325C6.77812 14.8725 7.15124 15.3112 7.61437 15.315C8.07374 15.3169 8.45436 14.8837 8.45624 14.3419C8.45999 13.8056 8.08499 13.3631 7.62187 13.3612Z" fill="#2F2F2F"/>
<path d="M13.2244 13.3612C12.7631 13.3631 12.3881 13.8056 12.3937 14.3419C12.3937 14.8837 12.7744 15.3169 13.2337 15.315C13.6969 15.3112 14.07 14.8725 14.0681 14.3325C14.0644 13.7962 13.6875 13.3594 13.2244 13.3612Z" fill="#2F2F2F"/>
<path d="M16.5319 1.86938C16.2075 1.92938 15.8719 2.16 15.69 2.35875C15.3206 2.76188 15.0862 3.27188 14.8725 3.76875C14.5725 4.46813 14.1319 5.7075 13.8919 6.42938C13.7794 6.76688 13.6725 7.09875 13.575 7.44188C13.4775 7.78125 13.3556 8.1075 13.3425 8.46375C13.3369 8.64188 13.3819 8.69625 13.5487 8.7675C13.7194 8.84063 13.9312 8.9475 14.115 8.97C14.2219 8.98313 14.2612 8.97938 14.3194 8.90063C14.3681 8.83313 14.4056 8.73 14.46 8.655C14.7 8.31938 14.8312 7.87125 15.0262 7.5075C15.2587 7.07063 15.51 6.645 15.7369 6.20625C16.0519 5.59688 16.6162 4.49625 16.8881 3.86438C17.0662 3.45 17.5125 2.35875 17.0625 1.98375C16.9125 1.85625 16.725 1.83188 16.5319 1.86938Z" fill="#ED80AD"/>
<path d="M8.98875 8.38689C9.32437 8.18064 8.9625 7.40814 8.87625 7.13439C8.6775 6.49501 8.38312 5.89314 8.08875 5.29314C7.44375 3.98439 6.59437 2.67376 5.30812 1.91626C5.07 1.77564 4.8375 1.65751 4.56 1.73626C4.17562 1.84689 4.01625 2.04001 4.0425 2.44689C4.09875 3.33564 5.28937 4.18501 5.82187 4.81876C6.26437 5.34564 6.6675 5.90626 7.05375 6.47626C7.38187 6.96001 7.64812 7.48314 7.92562 7.99876C8.0025 8.13939 8.11875 8.50126 8.28937 8.56688C8.415 8.61939 8.80312 8.50126 8.98875 8.38689Z" fill="#ED80AD"/>
<path d="M12.4613 17.0231C12.1725 16.8769 11.8913 17.3044 11.6194 17.3362C11.3044 17.3737 11.0156 17.2312 10.9706 17.0775C10.9538 17.0194 10.9331 16.7906 10.9294 16.74C11.355 16.5694 11.5669 16.2581 11.565 16.0912C11.565 15.9806 11.5106 15.8775 11.4056 15.8644C11.2931 15.8512 11.22 15.9094 11.1319 15.9731C10.9181 16.1231 10.83 16.2056 10.4888 16.2037C10.26 16.2019 10.0763 16.0875 9.93938 15.9656C9.87751 15.9112 9.73313 15.8175 9.61688 15.9206C9.36376 16.1437 9.76876 16.5506 9.98251 16.6444C10.0781 16.6875 10.1606 16.7287 10.2506 16.7625C10.2506 16.8994 10.2488 17.0381 10.2469 17.0625C10.2319 17.2406 10.0463 17.3306 9.88126 17.3719C9.74251 17.4056 9.54376 17.3812 9.41063 17.325C9.28876 17.2762 9.21188 17.1544 9.12751 17.0625C9.03751 16.9669 8.92876 16.9237 8.82376 16.9762C8.65501 17.0606 8.64001 17.2669 8.73938 17.4619C8.86126 17.7 9.00938 17.79 9.17063 17.88C9.39376 18.0056 9.90751 18.045 10.2413 17.8912C10.5169 17.7656 10.6125 17.5987 10.8113 17.7506C11.0831 17.9569 11.4713 17.9812 11.8181 17.8931C12.1125 17.82 12.8531 17.2219 12.4613 17.0231Z" fill="#2F2F2F"/>
</svg>
