<svg width="24" height="24" viewBox="0 0 24 24" fill="none" xmlns="http://www.w3.org/2000/svg">
<path d="M10.6667 1.33333C10.6667 1.33333 10.6667 0 12 0C13.3333 0 13.3333 1.33333 13.3333 1.33333V2.66667C13.3333 2.66667 13.3333 4 12 4C10.6667 4 10.6667 2.66667 10.6667 2.66667V1.33333ZM22.6667 10.6667C22.6667 10.6667 24 10.6667 24 12C24 13.3333 22.6667 13.3333 22.6667 13.3333H21.3333C21.3333 13.3333 20 13.3333 20 12C20 10.6667 21.3333 10.6667 21.3333 10.6667H22.6667ZM2.66667 10.6667C2.66667 10.6667 4 10.6667 4 12C4 13.3333 2.66667 13.3333 2.66667 13.3333H1.33333C1.33333 13.3333 0 13.3333 0 12C0 10.6667 1.33333 10.6667 1.33333 10.6667H2.66667ZM6.08067 4.862C6.08067 4.862 7.02333 5.80467 6.08067 6.74733C5.138 7.69 4.19533 6.74733 4.19533 6.74733L3.252 5.80533C3.252 5.80533 2.30933 4.86267 3.252 3.91933C4.19533 2.97667 5.138 3.91933 5.138 3.91933L6.08067 4.862ZM20.0807 18.862C20.0807 18.862 21.0233 19.8047 20.0807 20.7473C19.138 21.69 18.1953 20.7473 18.1953 20.7473L17.2527 19.8047C17.2527 19.8047 16.31 18.862 17.2527 17.9193C18.1953 16.9767 19.138 17.9193 19.138 17.9193L20.0807 18.862ZM19.8053 6.74733C19.8053 6.74733 18.8627 7.69 17.92 6.74733C16.9773 5.80467 17.92 4.862 17.92 4.862L18.8627 3.91933C18.8627 3.91933 19.8053 2.97667 20.748 3.91933C21.6907 4.862 20.748 5.80467 20.748 5.80467L19.8053 6.74733ZM5.80533 20.7473C5.80533 20.7473 4.86267 21.69 3.92 20.7473C2.97733 19.8047 3.92 18.862 3.92 18.862L4.86267 17.9193C4.86267 17.9193 5.80533 16.9767 6.748 17.9193C7.69067 18.862 6.748 19.8047 6.748 19.8047L5.80533 20.7473ZM10.6667 21.3333C10.6667 21.3333 10.6667 20 12 20C13.3333 20 13.3333 21.3333 13.3333 21.3333V22.6667C13.3333 22.6667 13.3333 24 12 24C10.6667 24 10.6667 22.6667 10.6667 22.6667V21.3333Z" fill="#FFAC33"/>
<path d="M12 18.6667C15.6819 18.6667 18.6667 15.6819 18.6667 12C18.6667 8.31811 15.6819 5.33334 12 5.33334C8.3181 5.33334 5.33333 8.31811 5.33333 12C5.33333 15.6819 8.3181 18.6667 12 18.6667Z" fill="#FFAC33"/>
</svg>
