<svg width="24" height="24" viewBox="0 0 24 24" fill="none" xmlns="http://www.w3.org/2000/svg">
<path d="M19.9347 17.9618C19.9328 17.93 19.9329 17.9009 19.9286 17.8748L19.9157 17.8068C19.8998 17.7252 19.8877 17.6798 19.8877 17.6798C19.8825 17.6602 19.8732 17.6419 19.8605 17.6261C19.8478 17.6103 19.832 17.5973 19.8139 17.588C19.7959 17.5787 19.7762 17.5733 19.7559 17.572C19.7357 17.5708 19.7154 17.5739 19.6964 17.581C19.6964 17.581 19.6524 17.5974 19.5767 17.6317C19.4983 17.6732 19.3973 17.7001 19.2719 17.7439C19.1314 17.7899 18.988 17.8264 18.8426 17.8531C18.6865 17.8818 18.5215 17.898 18.3519 17.9032C18.1817 17.9085 18.0077 17.9049 17.8221 17.8983C17.6237 17.8902 17.4253 17.8838 17.2269 17.8789C16.9982 17.8727 16.7693 17.8726 16.5405 17.8786C16.2964 17.8858 16.0342 17.8999 15.759 17.9296C15.4832 17.9582 15.1928 18.0027 14.8904 18.0743C14.588 18.147 14.2735 18.2456 13.9536 18.39C13.644 18.5298 13.3269 18.7159 13.0381 18.9614V14.5934C13.0381 14.0201 12.5734 13.5553 12 13.5553C11.4267 13.5553 10.962 14.0201 10.962 14.5934V18.9885L10.9609 18.9876C10.6668 18.7302 10.3407 18.5366 10.0228 18.3921C9.70341 18.247 9.38944 18.1478 9.08785 18.0749C8.7863 18.003 8.49694 17.9584 8.2223 17.9297C7.94846 17.9 7.68741 17.8858 7.44488 17.8785C7.21762 17.8724 6.99024 17.8725 6.76299 17.8788C6.55088 17.8838 6.35756 17.8906 6.17194 17.8981C5.98772 17.9046 5.81442 17.9083 5.64497 17.9028C5.47603 17.8975 5.31146 17.8811 5.15578 17.8523C5.01072 17.8255 4.8676 17.7891 4.72739 17.7432C4.60242 17.6997 4.50136 17.6726 4.42313 17.6315C4.34752 17.5974 4.3036 17.5811 4.3036 17.5811C4.2846 17.574 4.26434 17.571 4.24411 17.5722C4.22388 17.5735 4.20413 17.5789 4.18613 17.5882C4.16812 17.5975 4.15226 17.6105 4.13954 17.6262C4.12683 17.642 4.11755 17.6603 4.1123 17.6798C4.1123 17.6798 4.10016 17.7251 4.08408 17.8065L4.07105 17.8743C4.0666 17.9002 4.06674 17.9292 4.06472 17.9609L4.06139 18.065C4.06111 18.1034 4.06355 18.1385 4.06524 18.1795C4.06917 18.3427 4.1025 18.5378 4.17474 18.7585C4.24753 18.9782 4.36636 19.2196 4.5361 19.4554C4.70503 19.6912 4.9238 19.9207 5.17421 20.122C5.42391 20.3227 5.70516 20.4981 5.994 20.641C6.28308 20.7864 6.582 20.9006 6.87469 20.9921C7.16869 21.0838 7.45589 21.1519 7.73002 21.2049C7.86225 21.2308 7.99507 21.2537 8.12836 21.2735C8.25577 21.2927 8.38027 21.3086 8.49764 21.3212C8.73258 21.3463 8.94441 21.3603 9.12244 21.366C9.30169 21.3713 9.44471 21.3669 9.56105 21.3521C9.67711 21.3386 9.77152 21.3104 9.87985 21.3034C9.98897 21.294 10.1096 21.3194 10.2304 21.377C10.3504 21.434 10.4649 21.5179 10.5602 21.6009C10.6563 21.6832 10.7347 21.7622 10.7904 21.8182C10.8454 21.8743 10.8799 21.9066 10.8799 21.9066L10.9074 21.9323L10.9129 21.9372C10.9284 21.951 10.9449 21.9628 10.9619 21.9735V22.7718C10.9619 23.3451 11.4267 23.8099 12 23.8099C12.5733 23.8099 13.0381 23.3452 13.0381 22.7718V21.9424C13.0425 21.9387 13.047 21.9353 13.0513 21.9313L13.0777 21.9066C13.0777 21.9066 13.1122 21.8742 13.1671 21.8179C13.223 21.7618 13.3013 21.6825 13.3977 21.6003C13.4931 21.5173 13.6077 21.4334 13.728 21.3772C13.8488 21.32 13.9698 21.2961 14.079 21.3055C14.1875 21.3128 14.2829 21.3405 14.4011 21.3534C14.5192 21.3676 14.6647 21.3717 14.846 21.3662C15.0261 21.3605 15.2398 21.3464 15.4763 21.3214C15.5944 21.3088 15.7197 21.2929 15.8478 21.2738C15.9776 21.2548 16.1105 21.2319 16.248 21.2053C16.5233 21.1524 16.8117 21.0845 17.1066 20.993C17.4003 20.9017 17.7 20.7879 17.99 20.6429C18.2797 20.5006 18.5621 20.3256 18.813 20.1254C19.0646 19.9249 19.2849 19.6954 19.4554 19.4597C19.6268 19.224 19.7472 18.9822 19.8212 18.762C19.8948 18.5408 19.9289 18.345 19.9335 18.1813C19.9353 18.1402 19.9378 18.1049 19.9377 18.0665C19.9372 18.0316 19.9362 17.9967 19.9347 17.9618Z" fill="#2BA52E"/>
<path d="M20.3636 8.21212C20.3636 8.21212 20.2983 8.15854 20.1757 8.0721C20.1019 8.01907 20.0266 7.96794 19.9501 7.91877C19.85 7.85216 19.7482 7.78799 19.6449 7.72635C19.4506 7.60959 19.2206 7.48148 18.9606 7.34976C19.1449 7.12391 19.3031 6.91349 19.4333 6.72796C19.5028 6.62972 19.5698 6.52979 19.6343 6.42824C19.6843 6.35227 19.7323 6.27503 19.7783 6.19659C19.8552 6.06787 19.8932 5.9924 19.8932 5.9924C19.9153 5.94782 19.9355 5.89668 19.9493 5.8469C20.0657 5.42498 19.818 4.98862 19.3961 4.87218C19.3961 4.87218 19.3146 4.84973 19.1675 4.82038C19.0785 4.80185 18.989 4.78564 18.8991 4.77177C18.7805 4.75149 18.6615 4.73414 18.542 4.71974C18.3939 4.70137 18.2292 4.68482 18.0513 4.67137C18.0988 4.51398 18.1426 4.35548 18.1826 4.19601C18.212 4.07939 18.2386 3.96205 18.2623 3.84412C18.2817 3.75524 18.2987 3.66589 18.3135 3.57613C18.339 3.42838 18.3473 3.34429 18.3473 3.34429C18.3519 3.29474 18.3524 3.23976 18.3473 3.18838C18.3042 2.75282 17.9163 2.43463 17.4807 2.47771C17.4807 2.47771 17.3966 2.48601 17.2489 2.51156C17.1591 2.52628 17.0697 2.54333 16.9809 2.5627C16.8763 2.58374 16.758 2.60981 16.629 2.64248C16.409 2.69727 16.1558 2.76932 15.8788 2.86007C15.8494 2.5701 15.8125 2.30943 15.7734 2.08616C15.7509 1.95496 15.7267 1.83623 15.7036 1.73216C15.6852 1.6431 15.6646 1.55452 15.6416 1.46652C15.605 1.32112 15.5785 1.24091 15.5785 1.24091C15.5618 1.19156 15.5407 1.14386 15.5152 1.09842C15.2992 0.71779 14.8155 0.584337 14.4349 0.800384C14.4349 0.800384 14.3614 0.842102 14.2367 0.925352C14.1606 0.975215 14.0858 1.02705 14.0125 1.08079C13.9143 1.1503 13.8178 1.22221 13.7232 1.29646C13.5937 1.39769 13.4665 1.50198 13.342 1.60926C13.2643 1.46436 13.1831 1.32133 13.0986 1.18031C13.037 1.07699 12.9728 0.975211 12.9062 0.875056C12.8571 0.798534 12.8059 0.723306 12.7529 0.649446C12.6664 0.526915 12.6129 0.461571 12.6129 0.461571C12.5796 0.42149 12.5427 0.384582 12.5026 0.351321C12.1642 0.0737743 11.6649 0.123134 11.3873 0.461571C11.3873 0.461571 11.3337 0.526915 11.2473 0.649446C11.1943 0.723313 11.1431 0.798542 11.094 0.875056C11.0274 0.975222 10.9632 1.077 10.9016 1.18031C10.7846 1.37474 10.6564 1.60495 10.5246 1.86524C10.2987 1.68084 10.0883 1.52245 9.90274 1.39213C9.80455 1.32269 9.70468 1.25566 9.60321 1.19109C9.52728 1.14107 9.45007 1.09302 9.37165 1.04699C9.24302 0.970024 9.1676 0.932056 9.1676 0.932056C9.12071 0.908761 9.07175 0.889898 9.02135 0.875712C8.59957 0.759602 8.16349 1.00738 8.04738 1.42917C8.04738 1.42917 8.02498 1.51059 7.99573 1.65759C7.98082 1.73123 7.96292 1.82184 7.94726 1.92595C7.92702 2.0445 7.90972 2.16354 7.89537 2.28295C7.87535 2.4464 7.85926 2.6103 7.84709 2.77452C7.68944 2.72685 7.53068 2.68295 7.37093 2.64285C7.25434 2.61332 7.13704 2.58667 7.01913 2.56293C6.93031 2.54356 6.841 2.52648 6.75129 2.5117C6.60359 2.4861 6.51954 2.47776 6.51954 2.47776C6.46742 2.47286 6.41496 2.47286 6.36284 2.47776C5.92751 2.52102 5.60965 2.90901 5.65296 3.34434C5.65296 3.34434 5.66131 3.42838 5.6869 3.57609C5.69946 3.65015 5.71531 3.74113 5.73813 3.84393C5.75923 3.94846 5.78534 4.06673 5.81806 4.19573C5.87299 4.41595 5.94523 4.66945 6.03621 4.94685C5.74578 4.9762 5.48478 5.01304 5.26123 5.05213C5.13003 5.07459 5.01134 5.09868 4.90728 5.12179C4.80406 5.14265 4.71448 5.16506 4.64168 5.18362C4.49632 5.22013 4.41612 5.24662 4.41612 5.24662C4.3665 5.26331 4.31854 5.28459 4.27287 5.31018C3.89253 5.52632 3.7594 6.00988 3.97554 6.39027C3.97554 6.39027 4.01726 6.46373 4.10056 6.58832C4.15044 6.66434 4.20229 6.73905 4.25604 6.81238C4.32557 6.91051 4.3975 7.00691 4.47176 7.10151C4.56368 7.2194 4.66863 7.3477 4.78521 7.48326C4.64004 7.56104 4.49674 7.64225 4.35542 7.72682C4.25212 7.78841 4.15034 7.8525 4.05017 7.91906C3.97366 7.96817 3.89843 8.01925 3.82456 8.07224C3.70203 8.15859 3.63668 8.21212 3.63668 8.21212C3.59639 8.24554 3.55929 8.28264 3.52587 8.32293C3.24865 8.66137 3.29824 9.16045 3.63668 9.43766C3.63668 9.43766 3.70203 9.4912 3.82456 9.57754C3.88582 9.62104 3.96138 9.67415 4.05017 9.73073C4.15033 9.7973 4.25211 9.86139 4.35542 9.92296C4.54999 10.0398 4.78034 10.168 5.04082 10.2998C4.85623 10.526 4.69765 10.7366 4.56724 10.9223C4.49779 11.0205 4.43076 11.1204 4.3662 11.2219C4.31618 11.2978 4.26813 11.375 4.2221 11.4534C4.14513 11.5821 4.10717 11.6575 4.10717 11.6575C4.08387 11.7044 4.06501 11.7533 4.05082 11.8037C3.93471 12.2255 4.18249 12.6616 4.60432 12.7777C4.60432 12.7777 4.68574 12.8001 4.83274 12.8294C4.90638 12.8443 4.99699 12.8622 5.1011 12.8779C5.2062 12.8958 5.32596 12.9139 5.4581 12.9298C5.62155 12.9498 5.78546 12.9659 5.94968 12.978C5.90201 13.1357 5.85811 13.2944 5.81801 13.4541C5.78848 13.5707 5.76183 13.688 5.73809 13.8059C5.71872 13.8947 5.70164 13.984 5.68685 14.0737C5.66131 14.2214 5.65292 14.3055 5.65292 14.3055C5.64804 14.3576 5.64804 14.4101 5.65292 14.4622C5.69618 14.8975 6.08417 15.2154 6.51954 15.1721C6.51954 15.1721 6.60359 15.1638 6.75129 15.1382C6.82535 15.1256 6.91634 15.1098 7.01913 15.0869C7.12367 15.0659 7.24193 15.0397 7.37093 15.007C7.59115 14.9521 7.84465 14.8799 8.12206 14.7889C8.1514 15.0793 8.18824 15.3404 8.22734 15.5639C8.24766 15.6825 8.27089 15.8005 8.29699 15.9179C8.31785 16.0211 8.34026 16.1107 8.35882 16.1835C8.39534 16.3289 8.42182 16.4091 8.42182 16.4091C8.43851 16.4587 8.45979 16.5066 8.48538 16.5523C8.70153 16.9326 9.18509 17.0658 9.56548 16.8496C9.56548 16.8496 9.63893 16.8079 9.76353 16.7246C9.83953 16.6747 9.91424 16.6229 9.98759 16.5691C10.0857 16.4996 10.1821 16.4277 10.2767 16.3534C10.4064 16.2519 10.5337 16.1474 10.6585 16.0399C10.7363 16.185 10.8175 16.3283 10.902 16.4696C10.9636 16.5729 11.0277 16.6747 11.0943 16.7749C11.1434 16.8514 11.1944 16.9266 11.2474 17.0005C11.3338 17.123 11.3873 17.1883 11.3873 17.1883C11.4207 17.2286 11.4578 17.2657 11.4981 17.2991C11.8366 17.5763 12.3357 17.5267 12.6129 17.1883C12.6129 17.1883 12.6664 17.123 12.7527 17.0005C12.8057 16.9266 12.8568 16.8514 12.9059 16.7749C12.9725 16.6747 13.0366 16.5729 13.0982 16.4696C13.2149 16.2752 13.343 16.0451 13.4747 15.7849C13.7007 15.9693 13.9114 16.1277 14.0971 16.2581C14.1953 16.3275 14.2952 16.3945 14.3968 16.459C14.4728 16.509 14.55 16.5571 14.6284 16.6031C14.7571 16.68 14.8326 16.718 14.8326 16.718C14.8773 16.74 14.9284 16.7603 14.9781 16.774C15.4001 16.8904 15.8365 16.6427 15.9529 16.2208C15.9529 16.2208 15.9753 16.1393 16.0046 15.9923C16.0196 15.9186 16.0375 15.828 16.0532 15.7238C16.0712 15.6187 16.0894 15.4989 16.1052 15.3668C16.1236 15.2187 16.1402 15.054 16.1536 14.8761C16.311 14.9236 16.4694 14.9673 16.6289 15.0073C16.7579 15.04 16.8762 15.066 16.9808 15.0871C17.0836 15.1098 17.1746 15.1257 17.2488 15.1382C17.3965 15.1637 17.4806 15.172 17.4806 15.172C17.5302 15.1766 17.5852 15.1771 17.6365 15.172C18.0721 15.1289 18.3903 14.741 18.3472 14.3054C18.3472 14.3054 18.3389 14.2213 18.3133 14.0736C18.2986 13.9838 18.2816 13.8944 18.2622 13.8056C18.2385 13.6876 18.2119 13.5703 18.1824 13.4537C18.1276 13.2337 18.0556 12.9805 17.9648 12.7035C18.2548 12.6741 18.5155 12.6373 18.7388 12.5981C18.87 12.5756 18.9888 12.5515 19.0929 12.5283C19.1961 12.5074 19.2857 12.4849 19.3585 12.4663C19.5039 12.4297 19.5841 12.4032 19.5841 12.4032C19.6335 12.3865 19.6812 12.3654 19.7266 12.3399C20.1072 12.1239 20.2407 11.6402 20.0247 11.2596C20.0247 11.2596 19.9829 11.1861 19.8997 11.0614C19.8498 10.9853 19.798 10.9105 19.7442 10.8372C19.6747 10.739 19.6028 10.6425 19.5286 10.5479C19.4273 10.4184 19.3231 10.2912 19.2158 10.1667C19.3606 10.089 19.5037 10.0079 19.6447 9.92338C19.748 9.86176 19.8498 9.7976 19.9499 9.73096C20.0265 9.68182 20.1017 9.63069 20.1755 9.57763C20.2981 9.4912 20.3634 9.43762 20.3634 9.43762C20.4035 9.40436 20.4404 9.36745 20.4737 9.32737C20.7514 8.98898 20.702 8.48962 20.3636 8.21212Z" fill="#FFB636"/>
<path d="M12 13.2633C14.4512 13.2633 16.4383 11.2762 16.4383 8.82494C16.4383 6.37373 14.4512 4.38663 12 4.38663C9.54881 4.38663 7.56171 6.37373 7.56171 8.82494C7.56171 11.2762 9.54881 13.2633 12 13.2633Z" fill="#68442A"/>
</svg>
