<svg width="24" height="24" viewBox="0 0 24 24" fill="none" xmlns="http://www.w3.org/2000/svg">
<path d="M18.6994 12.2569C18.9581 12.5906 19.2769 13.3088 19.5731 14.385C19.8694 15.4613 20.3344 16.5188 21.15 16.5C21.9656 16.4813 21.8925 15.8531 22.0237 15.6038C22.1062 15.4481 22.2431 15.0731 23.0231 15.4988C23.8012 15.9244 23.5012 16.305 23.3662 16.6181C23.22 16.9575 22.5806 18.12 21.0675 18.0769C19.6669 18.0356 19.0931 17.3438 18.555 16.305C18.0169 15.2663 18.6994 12.2569 18.6994 12.2569Z" fill="#FE6A1F"/>
<path d="M19.1531 17.2369C19.1531 17.2369 19.5075 17.1469 19.8769 16.8056C20.1919 16.515 20.4544 16.2 20.4544 16.2C20.4544 16.2 20.2669 15.9769 20.1206 15.7406C19.905 15.39 19.8075 15.1069 19.8075 15.1069L18.4163 16.08C18.4163 16.08 18.6394 16.4437 18.7575 16.6781C18.915 17.0006 19.1531 17.2369 19.1531 17.2369Z" fill="#323130"/>
<path d="M3.99562 7.54126C3.99562 7.54126 3.95625 6.15001 4.97812 5.92689C6.09 5.68501 6.46125 6.90939 6.46125 6.90939L5.83125 7.70626L3.99562 7.54126Z" fill="#FE6A1F"/>
<path d="M13.2131 17.1112C13.2131 17.1112 13.7194 18.4481 13.77 18.9469C13.8675 19.9275 13.0125 20.1019 13.1025 20.8012C13.1625 21.2606 13.5638 21.3769 14.475 21.3769C15.6244 21.3769 16.1813 20.8387 16.1813 20.8387L16.59 15.9056L13.14 16.3144L13.2131 17.1112Z" fill="#FE6A1F"/>
<path d="M5.32687 15.7144C5.32687 15.7144 4.8 17.04 4.26937 17.7037C3.74062 18.3637 2.81625 19.1719 2.88562 20.3119C2.92875 21.0094 3.34125 21.3187 3.81375 21.4125C4.30312 21.51 4.8675 21.3787 5.12812 20.7675C5.38687 20.1562 5.38687 19.6912 5.38687 19.6912C5.38687 19.6912 6.51187 18.4725 6.86437 18.1012C7.21687 17.73 7.87312 17.1506 7.87312 17.1506L5.32687 15.7144Z" fill="#FE6A1F"/>
<path d="M4.92377 18.7388C5.13189 18.45 4.86564 18.1725 4.68752 18.015C4.45127 17.8069 4.24877 17.7225 4.24877 17.7225L3.84564 18.2025C3.84564 18.2025 4.08939 18.3619 4.26939 18.5288C4.42127 18.6694 4.74189 18.99 4.92377 18.7388Z" fill="#333132"/>
<path d="M4.54688 17.3063C4.54688 17.3063 4.8525 17.5144 4.92187 17.5837C4.99125 17.6531 5.29125 17.8612 5.415 17.7225C5.60062 17.5181 5.38312 17.2219 5.24062 17.0475C5.11875 16.8956 4.88812 16.6875 4.88812 16.6875L4.54688 17.3063Z" fill="#333132"/>
<path d="M4.28249 20.3587C3.97686 20.5256 3.83811 20.8387 3.94874 21.1106C4.04999 21.36 4.53374 21.4856 4.96499 21.1181C5.18436 20.9306 5.24249 20.4994 5.11124 20.3606C4.97999 20.2219 4.61811 20.1769 4.28249 20.3587Z" fill="#BB5D42"/>
<path d="M3.55313 20.7487C3.37126 20.7487 3.11438 20.8781 3.19876 21.1237C3.26063 21.3037 3.78188 21.4687 3.87376 21.1594C3.94313 20.9231 3.69188 20.7487 3.55313 20.7487Z" fill="#BB5D42"/>
<path d="M5.05314 14.9606L4.05189 14.4037C4.05189 14.4037 2.68502 14.49 1.84502 13.9781C1.05939 13.4981 0.528765 12.8287 0.416265 12.0862C0.303765 11.3437 0.32064 10.6219 0.45189 10.38C0.581265 10.1381 0.825015 10.0837 1.15877 9.95437C1.49252 9.825 1.99502 9.52125 1.99502 9.52125C1.99502 9.52125 2.06814 8.9325 2.41502 8.4375C2.93439 7.695 3.30939 7.63687 3.49502 7.54312C3.68064 7.45125 5.51626 7.3575 5.51626 7.3575L5.96064 7.32L6.51752 6.35625C6.51752 6.35625 7.24127 5.83687 8.11314 6.26437C8.98502 6.69187 9.02252 7.7475 8.96627 8.11875C8.91002 8.49 8.78064 8.78625 8.79939 8.91562C8.80877 8.98125 9.19314 9.30562 9.54189 9.65812C9.88314 10.0012 10.1288 10.2956 10.2713 10.3819C10.4156 10.4681 12.1931 10.1681 14.2913 10.3256C16.4119 10.485 17.8031 10.8881 18.5831 12.0019C19.3613 13.1137 19.3706 14.3325 19.1494 15.63C18.9281 16.9275 18.2213 18.2269 18.1481 18.4313C18.0731 18.6356 18.0731 20.0813 18.0731 20.4525C18.0731 20.8238 18.2081 22.4006 16.9969 22.4212C16.3069 22.4325 15.6413 22.545 15.3619 21.9694C15.0844 21.3937 15.3131 20.7037 15.3131 20.7037L15.8644 20.1019L15.7894 19.0444L14.6775 17.9681L14.4731 17.1525L12.3413 17.2444C12.3413 17.2444 10.5975 17.5219 10.4869 17.6531C10.3763 17.7844 10.0969 19.5637 10.005 20.4712C9.91314 21.3806 9.49127 22.2563 9.19314 22.3856C8.89689 22.515 8.32314 22.7269 7.54502 22.5525C6.83439 22.3931 6.69564 21.7106 7.12127 21.1537C7.39314 20.7956 7.65752 20.6663 7.65752 20.6663C7.65752 20.6663 7.60877 19.6369 7.58064 18.705C7.56002 18.0225 7.57127 17.3794 7.52439 17.2931C7.41377 17.0887 5.96251 15.2025 5.96251 15.2025L5.05314 14.9606Z" fill="#FF9613"/>
<path d="M20.8013 16.4363C20.8013 16.4363 20.7806 17.0363 20.7169 17.2913C20.6063 17.7431 20.4319 18.0075 20.4319 18.0075C20.4319 18.0075 20.8219 18.12 21.3638 18.0919C21.8719 18.0638 22.2169 17.8444 22.2169 17.8444C22.2169 17.8444 21.9619 17.265 21.8925 17.0831C21.8231 16.9031 21.6075 16.38 21.6075 16.38C21.6075 16.38 21.4894 16.4494 21.2456 16.485C21.0958 16.5056 20.9431 16.4888 20.8013 16.4363Z" fill="#323130"/>
<path d="M21.8794 16.0688C21.8794 16.0688 22.2694 16.1794 22.6031 16.3331C22.9369 16.4869 23.3269 16.7231 23.3269 16.7231C23.3269 16.7231 23.7019 15.9713 23.7712 15.4444C23.82 15.0675 23.6925 14.5838 23.3119 14.4431C22.8244 14.2631 22.3387 14.61 22.1569 15.1669C21.975 15.7238 21.8794 16.0688 21.8794 16.0688Z" fill="#323130"/>
<path d="M8.19186 8.43187C8.19186 8.43187 8.65124 7.37437 7.98374 7.0125C7.31624 6.65062 6.92624 7.65187 6.92624 7.65187C7.3392 7.92606 7.76132 8.18621 8.19186 8.43187Z" fill="#FD6A1F"/>
<path d="M2.07187 9.9075C2.07187 9.9075 1.31437 10.1156 0.924371 10.3744C0.691871 10.5281 0.643121 10.8319 0.631871 11.1675C0.596246 12.3075 1.28625 13.4756 2.34937 13.8319C3.59625 14.2481 4.2975 13.9425 4.2975 13.9425C4.2975 13.9425 3.78375 13.1494 3.49125 12.8025C3.19875 12.4556 2.94937 12.2175 2.85187 12.0375C2.75437 11.8575 2.64375 11.0438 2.49 10.6819C2.33625 10.3163 2.07187 9.9075 2.07187 9.9075Z" fill="white"/>
<path d="M1.90501 11.0063C1.90501 11.0063 0.750008 11.3813 0.750008 11.4244C0.750008 11.4656 0.736883 12.0225 0.819383 12.0919C0.903758 12.1613 1.12501 12.2869 1.32001 12.315C1.51501 12.3431 1.75126 12.3281 1.86188 12.4256C1.92376 12.4781 1.97251 12.8569 1.41751 12.9825C0.862508 13.1081 0.401258 12.51 0.277508 12.0919C0.151883 11.6738 0.151883 10.785 0.472508 10.3538C0.697508 10.0463 1.64063 10.5881 1.90501 11.0063Z" fill="#323332"/>
<path d="M8.15626 21.4312C7.94438 21.4087 7.82438 21.5362 7.80563 22.0087C7.78876 22.4269 7.93688 22.6031 8.11313 22.6275C8.39251 22.6687 8.24251 22.2656 8.25188 22.0987C8.27063 21.8194 8.48438 21.465 8.15626 21.4312Z" fill="#FE6A1F"/>
<path d="M7.23936 21.3262C7.10811 21.2494 6.86435 21.3469 6.8606 21.8775C6.85873 22.3069 7.14561 22.5244 7.33498 22.4737C7.43998 22.4456 7.28811 22.0669 7.24498 21.9244C7.17186 21.6863 7.50373 21.48 7.23936 21.3262Z" fill="#FE6A1F"/>
<path d="M8.76189 22.4738C8.72626 22.62 9.60564 22.4531 9.90189 21.7575C10.1981 21.0619 10.3463 19.5131 10.4119 18.9206C10.4775 18.3263 10.6444 17.8163 10.7081 17.7806C10.7738 17.7431 11.4338 17.595 12.4819 17.475C13.4044 17.3681 14.2144 17.3081 14.2144 17.3081C14.2144 17.3081 14.2613 17.8556 14.7244 18.3281C15.1875 18.8006 15.6338 19.1438 15.6694 19.2094C15.7069 19.275 15.72 20.0325 15.66 20.1919C15.6469 20.2294 14.9288 20.7581 14.9513 21.4744C14.97 22.1044 15.5175 22.38 15.8419 22.4175C16.1663 22.455 16.3031 22.4438 16.0988 22.3219C15.8944 22.2019 15.3544 22.1194 15.3619 21.4463C15.3713 20.5631 16.0313 20.3494 16.0594 20.1825C16.0875 20.0156 16.0313 19.0425 16.0031 18.9769C15.975 18.9113 15.3 18.3113 15.075 18.0319C14.6794 17.5388 14.7881 17.0119 14.7038 16.9369C14.6194 16.8619 13.1756 16.9256 12.4313 17.0119C11.9063 17.0719 10.5394 17.2388 10.2525 17.5688C10.1606 17.6738 9.93376 19.7963 9.90001 20.0625C9.84376 20.5013 9.82876 21.2175 9.53814 21.7031C9.29439 22.1156 8.80876 22.2788 8.76189 22.4738Z" fill="#BB5D42"/>
<path d="M15.8831 21.8831C15.8925 22.2637 16.02 22.4812 16.2975 22.4625C16.575 22.4437 16.3312 22.0444 16.3162 21.915C16.2881 21.6731 16.5169 21.3431 16.3444 21.3037C16.0669 21.2381 15.8756 21.5494 15.8831 21.8831Z" fill="#FE6A1F"/>
<path d="M4.24689 10.1231C4.27877 10.4775 4.14564 10.8019 3.86252 10.8581C3.57939 10.9163 3.29252 10.785 3.21752 10.3181C3.14627 9.8775 3.35252 9.6375 3.63564 9.58125C3.91877 9.525 4.20939 9.70875 4.24689 10.1231Z" fill="#313130"/>
<path d="M4.29748 8.84999C4.65936 8.80124 4.58998 8.42437 4.53373 8.16374C4.47748 7.90312 4.38561 7.72874 4.38561 7.72874C4.38561 7.72874 4.69311 7.67624 4.84686 7.74187C4.90873 7.76812 4.96498 7.82624 5.02498 7.89562C5.35873 8.27624 5.23123 8.94562 5.55561 8.98312C5.87998 9.02062 5.88748 8.51624 5.86873 8.20124C5.84998 7.88624 5.80311 7.72874 5.84998 7.64437C5.89686 7.55999 6.13498 7.61999 6.15561 7.55999C6.21561 7.38187 6.35061 6.91124 6.56436 6.66937C6.77811 6.42749 7.11936 6.18562 7.52436 6.19124C7.80748 6.19499 8.12998 6.28124 8.06623 6.23249C7.87311 6.08249 6.92623 5.74499 6.28498 6.21374C5.74498 6.60937 5.65498 7.14937 5.65498 7.14937C5.65498 7.14937 5.27061 7.12124 4.61623 7.16999C4.13061 7.20562 3.69936 7.36124 3.46498 7.47562C3.00186 7.70062 2.78061 7.97624 2.78061 7.97624C2.78061 7.97624 3.14436 7.81499 3.26061 7.78124C3.54561 7.69687 3.71811 7.83187 3.86623 8.18437C3.95436 8.39999 4.01998 8.88749 4.29748 8.84999Z" fill="#33312F"/>
<path d="M5.53311 9.81562C5.36623 9.80249 5.36248 10.0612 5.33998 10.3237C5.30248 10.7681 5.28936 11.2219 5.25561 11.2762C5.19936 11.3681 4.90124 11.7731 4.73436 11.9569C4.64999 12.0487 4.36686 12.3075 4.44749 12.4387C4.62374 12.7256 5.74498 12.0037 5.84811 11.3719C5.94186 10.7944 5.90436 9.84374 5.53311 9.81562Z" fill="#33312F"/>
<path d="M6.23062 11.895C6.2025 11.9794 5.85937 12.3281 5.46562 12.5981C5.05687 12.8756 4.64812 13.0031 4.77562 13.1887C4.93312 13.4212 5.60062 13.1981 5.9625 13.0312C6.25312 12.8962 6.76875 12.4875 6.88125 12.1969C6.97312 11.955 6.92812 11.1394 6.78937 10.6856C6.65062 10.2319 6.435 9.72187 6.26062 9.8925C6.16125 9.99 6.255 10.3369 6.28125 10.8112C6.3075 11.3119 6.25125 11.8312 6.23062 11.895Z" fill="#33312F"/>
<path d="M7.61437 19.5656C7.61437 19.5656 8.09624 19.4287 8.39249 19.4475C8.68874 19.4662 9.3375 19.5319 9.45 19.4756C9.63187 19.3837 8.98312 18.8737 8.40937 18.8175C7.83562 18.7612 7.57312 18.8287 7.57312 18.8287L7.61437 19.5656Z" fill="#333132"/>
<path d="M7.56562 18.0713C7.56562 18.0713 7.71562 17.9025 8.28187 17.9119C8.84812 17.9213 9.46687 18.0019 9.44812 17.8069C9.42937 17.6119 8.5875 17.2163 8.22375 17.1956C8.00062 17.1825 7.49625 17.2519 7.49625 17.2519L7.56562 18.0713Z" fill="#333132"/>
<path d="M5.22001 14.7188C5.22001 14.7188 5.85563 14.0588 6.20251 13.7738C6.72188 13.3481 7.53751 12.6619 7.55626 11.6044C7.57501 10.5469 7.07438 9.67501 6.98063 9.50813C6.88876 9.34126 6.60938 8.78438 6.92438 8.56313C7.23938 8.34001 7.64438 8.39626 8.33438 9.13876C9.05813 9.91688 9.85501 11.4206 9.85501 11.4206C9.85501 11.4206 9.42938 12.6075 8.52001 13.2938C8.18626 13.545 7.83001 13.6519 7.58438 13.8506C7.16063 14.1938 6.99376 14.6681 6.94501 15.1388C6.79688 16.5488 7.26188 16.5375 7.44188 16.8975C7.56938 17.1563 7.59751 17.8669 7.56751 17.8913C7.41001 18.0244 6.87188 17.4469 6.78001 17.3531C6.68813 17.2613 6.39001 16.9444 6.39001 16.9444C6.39001 16.9444 6.37126 17.2781 6.24188 17.2781C6.06563 17.2781 5.59313 16.7963 5.35126 16.2956C5.10938 15.795 4.83188 15.3319 4.57313 14.9606C4.46063 14.7994 4.02188 14.4131 4.02188 14.4131C4.02188 14.4131 4.18501 14.2369 4.50001 14.2931C4.81126 14.3475 5.22001 14.7188 5.22001 14.7188Z" fill="#FDEDCC"/>
<path d="M7.91812 10.2131C7.63687 10.3575 8.05874 11.7637 7.85249 12.2906C7.74937 12.5531 7.40812 13.2094 7.64812 13.3481C7.88999 13.4869 8.63999 12.7537 8.74312 12.3C8.84624 11.8462 8.27999 10.0275 7.91812 10.2131Z" fill="#33312F"/>
<path d="M7.73251 15.4706C7.73251 15.8794 9.07501 15.8325 9.07501 15.8325C9.07501 15.8325 9.92251 16.5844 10.1063 16.4531C10.3294 16.2956 10.245 16.0725 10.0688 15.795C9.79126 15.3581 9.62439 15.1088 9.31689 14.9794C9.03939 14.8613 8.49189 15.0206 8.20501 15.09C7.84501 15.1781 7.73251 15.3375 7.73251 15.4706Z" fill="#33312F"/>
<path d="M9.5325 12.66C9.36562 12.8644 9.59062 13.0481 9.80062 13.3744C9.99937 13.6819 10.4362 14.265 10.4362 14.265C10.4362 14.265 10.3762 15.5813 10.5431 15.7013C10.7381 15.84 10.9875 15.4425 11.1094 15.1069C11.2312 14.7713 11.2387 14.3456 11.2106 14.0869C11.1825 13.8281 11.0062 13.41 10.3744 12.9581C9.89062 12.615 9.615 12.5588 9.5325 12.66Z" fill="#33312F"/>
<path d="M10.4119 10.3894C10.4119 10.3894 10.7925 10.9744 10.9969 11.5294C11.2012 12.0862 11.4019 12.69 11.475 13.1344C11.5144 13.3725 11.6381 13.8862 11.8219 13.9125C12.0075 13.9406 12.1369 13.4175 12.1912 12.8344C12.2475 12.2287 12.1744 11.3625 12.0731 10.9725C11.9719 10.5825 11.85 10.2881 11.85 10.2881C11.85 10.2881 11.5106 10.2825 11.0981 10.305C10.7381 10.3237 10.4119 10.3894 10.4119 10.3894Z" fill="#33312F"/>
<path d="M13.0181 10.2675C13.0181 10.2675 13.2206 11.0325 13.2619 12.1237C13.29 12.8381 13.38 14.0775 13.5956 14.0775C13.8731 14.0775 14.1244 13.1344 14.235 12.0675C14.3456 11.0006 14.3194 10.3144 14.3194 10.3144C14.3194 10.3144 13.9819 10.2769 13.6856 10.2656C13.3181 10.2544 13.0181 10.2675 13.0181 10.2675Z" fill="#33312F"/>
<path d="M15.48 14.0925C15.855 14.1412 16.2094 13.0406 16.3762 12.3544C16.5431 11.6681 16.6519 10.7137 16.6519 10.7137C16.6519 10.7137 16.3556 10.6294 16.05 10.56C15.6975 10.4794 15.3825 10.4419 15.3825 10.4419C15.3825 10.4419 15.4444 11.0812 15.4294 12.1219C15.42 12.6787 15.2512 14.0644 15.48 14.0925Z" fill="#33312F"/>
<path d="M17.6775 11.1581C17.6775 11.1581 17.5519 12.5475 17.4694 12.8344C17.385 13.1212 16.6688 14.1487 16.815 14.3156C17.0063 14.535 17.9494 13.7662 18.2269 13.155C18.5044 12.5437 18.5494 11.9325 18.5494 11.9325C18.5494 11.9325 18.4425 11.7281 18.1294 11.4712C17.8856 11.2706 17.6775 11.1581 17.6775 11.1581Z" fill="#33312F"/>
<path d="M10.7025 17.7863C10.7025 17.7863 11.5537 16.5731 11.7581 16.0369C11.9625 15.4988 12.3244 14.6156 12.6394 14.535C12.9637 14.4506 12.87 15.3056 12.6675 15.9731C12.4725 16.6125 12.1294 17.5125 12.1294 17.5125C12.1294 17.5125 11.7806 17.5688 11.4825 17.6138C10.8712 17.7056 10.7025 17.7863 10.7025 17.7863Z" fill="#33312F"/>
<path d="M13.0106 17.4113C13.0106 17.4113 13.6462 16.2019 13.8169 15.7069C13.9237 15.3994 14.1487 14.5425 14.4356 14.5519C14.7225 14.5613 14.7037 15.2756 14.6212 15.7106C14.5369 16.1456 14.2125 17.3063 14.2125 17.3063C14.2125 17.3063 13.9575 17.3269 13.6837 17.355C13.4587 17.3775 13.0106 17.4113 13.0106 17.4113Z" fill="#33312F"/>
<path d="M15.1331 16.7344C15.18 16.89 16.4513 16.8131 16.8713 16.5356C17.6719 16.005 18.0806 14.5837 17.8031 14.6025C17.5256 14.6212 16.6819 15.5662 16.3838 15.7612C16.0875 15.9544 15.0394 16.4269 15.1331 16.7344Z" fill="#33312F"/>
<path d="M14.4375 17.9325C14.4375 17.9325 15.6262 18.135 16.3294 17.9681C16.9556 17.82 17.4975 17.1262 17.6925 17.2387C17.8875 17.3494 17.6362 18.2962 16.7475 18.6019C15.8869 18.8981 15.2175 18.7687 15.2175 18.7687C15.2175 18.7687 14.9175 18.5531 14.7731 18.3787C14.5481 18.1125 14.4375 17.9325 14.4375 17.9325Z" fill="#33312F"/>
</svg>
