<svg width="24" height="24" viewBox="0 0 24 24" fill="none" xmlns="http://www.w3.org/2000/svg">
<path d="M8.9 6.86703C8.90576 7.11577 8.86174 7.36316 8.77053 7.59466C8.67932 7.82615 8.54275 8.03707 8.36886 8.21504C8.19497 8.393 7.98726 8.53441 7.75794 8.63095C7.52862 8.7275 7.28232 8.77723 7.0335 8.77723C6.78469 8.77723 6.53839 8.7275 6.30907 8.63095C6.07975 8.53441 5.87204 8.393 5.69815 8.21504C5.52426 8.03707 5.38769 7.82615 5.29648 7.59466C5.20527 7.36316 5.16125 7.11577 5.167 6.86703C5.17502 6.37722 5.37522 5.9102 5.72443 5.56665C6.07364 5.22311 6.54389 5.03058 7.03375 5.03058C7.52362 5.03058 7.99386 5.22311 8.34308 5.56665C8.69229 5.9102 8.89249 6.37722 8.9005 6.86703H8.9Z" fill="white"/>
<path fill-rule="evenodd" clip-rule="evenodd" d="M4.84801 12.9975C4.70744 13.2224 4.48329 13.3823 4.22487 13.4419C3.96644 13.5016 3.69491 13.4561 3.47001 13.3155C3.2451 13.175 3.08525 12.9508 3.02561 12.6924C2.96598 12.434 3.01144 12.1624 3.15201 11.9375L3.15401 11.9345L3.15751 11.929L3.16951 11.91C3.23293 11.8101 3.29811 11.7112 3.36501 11.6135C3.49251 11.426 3.67201 11.172 3.87601 10.9135C4.07551 10.6615 4.32051 10.377 4.57951 10.146C4.70901 10.0305 4.86501 9.90753 5.04151 9.80853C5.20751 9.71553 5.46701 9.60052 5.78451 9.60052H8.28251C8.60001 9.60052 8.85951 9.71553 9.02601 9.80853C9.20201 9.90753 9.35851 10.0305 9.48751 10.146C9.74651 10.377 9.99201 10.6615 10.191 10.914C10.4428 11.2342 10.6786 11.5666 10.8975 11.91L10.91 11.929L10.9135 11.934L10.915 11.937C10.915 11.937 10.8975 11.91 10.915 11.937C11.0517 12.1618 11.0944 12.4313 11.0337 12.6873C10.9731 12.9433 10.814 13.165 10.5909 13.3045C10.3679 13.444 10.0989 13.49 9.8422 13.4326C9.58549 13.3751 9.36177 13.2188 9.21951 12.9975L9.21801 12.9955L9.21001 12.983C9.18502 12.9436 9.15969 12.9045 9.13401 12.8655V14.1075L9.49551 17.905C9.51824 18.1639 9.43931 18.4214 9.27545 18.6231C9.1116 18.8248 8.87567 18.9547 8.61765 18.9855C8.35962 19.0162 8.09976 18.9453 7.89311 18.7878C7.68645 18.6303 7.54923 18.3985 7.51051 18.1415L7.00001 14.5715L6.49001 18.1415C6.45349 18.4004 6.31701 18.6348 6.10981 18.7943C5.90261 18.9538 5.64118 19.0258 5.38153 18.9949C5.12188 18.9639 4.88467 18.8325 4.72074 18.6288C4.5568 18.4251 4.47918 18.1653 4.50451 17.905L4.92451 13.5H4.93351V12.865C4.9077 12.9042 4.8822 12.9435 4.85701 12.983L4.84951 12.9955L4.84801 12.9975Z" fill="white"/>
<path d="M18.9 6.86651C18.9 7.3616 18.7033 7.83641 18.3532 8.1865C18.0032 8.53658 17.5283 8.73326 17.0333 8.73326C16.5382 8.73326 16.0633 8.53658 15.7133 8.1865C15.3632 7.83641 15.1665 7.3616 15.1665 6.86651C15.1665 6.37141 15.3632 5.8966 15.7133 5.54651C16.0633 5.19643 16.5382 4.99976 17.0333 4.99976C17.5283 4.99976 18.0032 5.19643 18.3532 5.54651C18.7033 5.8966 18.9 6.37141 18.9 6.86651Z" fill="white"/>
<path fill-rule="evenodd" clip-rule="evenodd" d="M14.8505 12.8925C14.709 13.1137 14.4862 13.2703 14.2302 13.3287C13.9742 13.387 13.7056 13.3423 13.4822 13.2043C13.2589 13.0662 13.0988 12.8459 13.0366 12.5908C12.9743 12.3357 13.0149 12.0664 13.1495 11.841L13.151 11.838L13.155 11.8325L13.1665 11.8135L13.209 11.7465C13.414 11.4273 13.6331 11.1174 13.8655 10.8175C14.0625 10.5655 14.3055 10.2805 14.5615 10.049C14.69 9.9335 14.845 9.8095 15.0205 9.7105C15.1855 9.6165 15.4455 9.5 15.7645 9.5H18.2355C18.5545 9.5 18.8145 9.6165 18.98 9.71C19.155 9.81 19.31 9.9335 19.4385 10.049C19.695 10.2805 19.9375 10.5655 20.1345 10.8175C20.3837 11.1377 20.6169 11.4699 20.8335 11.813L20.8455 11.8325L20.8505 11.841C20.99 12.0666 21.0342 12.3383 20.9733 12.5965C20.9124 12.8546 20.7515 13.078 20.526 13.2175C20.3004 13.357 20.0287 13.4012 19.7705 13.3403C19.5124 13.2795 19.289 13.1186 19.1495 12.893L19.148 12.8905L19.1405 12.878C19.0652 12.7595 18.9877 12.6425 18.908 12.527C19.142 13.692 19.603 15.29 19.844 16.098C19.8641 16.1636 19.8703 16.2327 19.8624 16.3008C19.8544 16.369 19.8324 16.4348 19.7977 16.494C19.763 16.5532 19.7164 16.6046 19.6609 16.6448C19.6053 16.6851 19.542 16.7134 19.475 16.728C17.7065 17.0965 16.4685 17.087 14.548 16.721C14.4791 16.7074 14.4138 16.6795 14.3564 16.639C14.299 16.5985 14.2508 16.5463 14.2149 16.4859C14.1791 16.4255 14.1564 16.3582 14.1483 16.2885C14.1402 16.2187 14.1469 16.148 14.168 16.081C14.4205 15.269 14.89 13.688 15.1125 12.497C15.0257 12.6224 14.9413 12.7494 14.8595 12.878L14.852 12.8905L14.8505 12.8925Z" fill="white"/>
<path fill-rule="evenodd" clip-rule="evenodd" d="M14.8 17.576V18.25C14.8002 18.4318 14.8664 18.6073 14.9863 18.7439C15.1061 18.8805 15.2715 18.969 15.4517 18.9928C15.6319 19.0166 15.8146 18.9742 15.9658 18.8735C16.1171 18.7727 16.2266 18.6205 16.274 18.445L16.4715 17.713C15.9126 17.6932 15.3548 17.6475 14.8 17.576ZM17.6275 17.711L17.826 18.4455C17.8735 18.621 17.9831 18.7733 18.1344 18.874C18.2857 18.9748 18.4685 19.0172 18.6487 18.9933C18.8289 18.9694 18.9943 18.8808 19.1141 18.7441C19.2339 18.6074 19.3 18.4318 19.3 18.25V17.569C18.7449 17.641 18.1869 17.6882 17.6275 17.7105V17.711Z" fill="white"/>
</svg>
