<svg width="76" height="76" viewBox="0 0 76 76" fill="none" xmlns="http://www.w3.org/2000/svg">
<path d="M28.1833 21.7455C28.2016 22.5332 28.0622 23.3166 27.7733 24.0497C27.4845 24.7828 27.052 25.4507 26.5014 26.0142C25.9507 26.5778 25.293 27.0256 24.5668 27.3313C23.8406 27.637 23.0607 27.7945 22.2728 27.7945C21.4849 27.7945 20.7049 27.637 19.9787 27.3313C19.2525 27.0256 18.5948 26.5778 18.0441 26.0142C17.4935 25.4507 17.061 24.7828 16.7722 24.0497C16.4833 23.3166 16.3439 22.5332 16.3622 21.7455C16.3876 20.1945 17.0215 18.7156 18.1274 17.6277C19.2332 16.5398 20.7223 15.9301 22.2736 15.9301C23.8248 15.9301 25.3139 16.5398 26.4197 17.6277C27.5256 18.7156 28.1595 20.1945 28.1849 21.7455H28.1833Z" fill="#1867C0"/>
<path fill-rule="evenodd" clip-rule="evenodd" d="M15.352 41.1588C14.9069 41.871 14.1971 42.3772 13.3787 42.566C12.5604 42.7549 11.7005 42.6109 10.9884 42.1658C10.2762 41.7207 9.76995 41.0108 9.58111 40.1925C9.39226 39.3742 9.53623 38.5143 9.98135 37.8021L9.98768 37.7926L9.99877 37.7752L10.0368 37.715C10.2376 37.3985 10.444 37.0854 10.6559 36.7761C11.0596 36.1824 11.628 35.378 12.274 34.5594C12.9058 33.7614 13.6816 32.8605 14.5018 32.129C14.9119 31.7633 15.4059 31.3738 15.9648 31.0603C16.4904 30.7658 17.3122 30.4016 18.3176 30.4016H26.2279C27.2334 30.4016 28.0551 30.7658 28.5824 31.0603C29.1397 31.3738 29.6353 31.7633 30.0438 32.129C30.8639 32.8605 31.6414 33.7614 32.2715 34.561C33.0689 35.5748 33.8155 36.6274 34.5088 37.715L34.5484 37.7752L34.5594 37.791L34.5642 37.8005C34.5642 37.8005 34.5088 37.715 34.5642 37.8005C34.9971 38.5122 35.1322 39.3658 34.9401 40.1764C34.748 40.987 34.2443 41.6892 33.538 42.131C32.8317 42.5727 31.9799 42.7184 31.167 42.5364C30.3541 42.3544 29.6456 41.8595 29.1951 41.1588L29.1904 41.1524L29.165 41.1129C29.0859 40.9881 29.0057 40.8641 28.9244 40.7408V44.6738L30.0691 56.6992C30.1411 57.5189 29.8912 58.3344 29.3723 58.9731C28.8534 59.6117 28.1063 60.0233 27.2892 60.1206C26.4721 60.218 25.6492 59.9934 24.9948 59.4946C24.3404 58.9958 23.9059 58.2618 23.7833 57.4481L22.1667 46.1431L20.5517 57.4481C20.4361 58.268 20.0039 59.01 19.3477 59.5151C18.6916 60.0203 17.8637 60.2483 17.0415 60.1503C16.2193 60.0524 15.4681 59.6363 14.949 58.9912C14.4299 58.3461 14.1841 57.5233 14.2643 56.6992L15.5943 42.75H15.6228V40.7392C15.5411 40.8631 15.4603 40.9877 15.3805 41.1129L15.3568 41.1524L15.352 41.1588Z" fill="#1867C0"/>
<path d="M59.85 21.7439C59.85 23.3117 59.2272 24.8153 58.1186 25.9239C57.01 27.0325 55.5064 27.6553 53.9386 27.6553C52.3708 27.6553 50.8672 27.0325 49.7586 25.9239C48.65 24.8153 48.0272 23.3117 48.0272 21.7439C48.0272 20.1761 48.65 18.6725 49.7586 17.5639C50.8672 16.4553 52.3708 15.8325 53.9386 15.8325C55.5064 15.8325 57.01 16.4553 58.1186 17.5639C59.2272 18.6725 59.85 20.1761 59.85 21.7439Z" fill="#1867C0"/>
<path fill-rule="evenodd" clip-rule="evenodd" d="M47.0266 40.8262C46.5786 41.5266 45.8731 42.0227 45.0625 42.2074C44.2518 42.3922 43.4011 42.2507 42.6939 41.8135C41.9867 41.3763 41.4798 40.6786 41.2826 39.8709C41.0854 39.0632 41.2138 38.2103 41.6401 37.4965L41.6448 37.487L41.6575 37.4696L41.6939 37.4094L41.8285 37.1972C42.4779 36.1865 43.1715 35.205 43.9074 34.2554C44.5312 33.4574 45.3007 32.5549 46.1114 31.8218C46.5183 31.4561 47.0092 31.0634 47.5649 30.7499C48.0874 30.4522 48.9107 30.0833 49.9209 30.0833H57.7457C58.7559 30.0833 59.5792 30.4522 60.1033 30.7483C60.6575 31.065 61.1483 31.4561 61.5552 31.8218C62.3675 32.5549 63.1354 33.4574 63.7592 34.2554C64.5483 35.2693 65.287 36.3214 65.9727 37.4078L66.0107 37.4696L66.0266 37.4965C66.4683 38.2108 66.6083 39.0713 66.4155 39.8888C66.2228 40.7062 65.7133 41.4136 64.999 41.8554C64.2847 42.2972 63.4242 42.4371 62.6067 42.2444C61.7893 42.0517 61.0818 41.5421 60.6401 40.8278L60.6353 40.8199L60.6116 40.7803C60.3734 40.4051 60.1279 40.0345 59.8753 39.6688C60.6163 43.358 62.0762 48.4183 62.8393 50.977C62.903 51.1848 62.9228 51.4035 62.8976 51.6193C62.8724 51.8351 62.8027 52.0434 62.6929 52.2309C62.583 52.4184 62.4355 52.5811 62.2596 52.7086C62.0836 52.8362 61.8832 52.9259 61.6708 52.972C56.0706 54.1389 52.1502 54.1088 46.0687 52.9498C45.8504 52.9069 45.6437 52.8183 45.462 52.6901C45.2803 52.5618 45.1276 52.3967 45.0141 52.2054C44.9005 52.0141 44.8286 51.8011 44.8029 51.5801C44.7773 51.3592 44.7986 51.1353 44.8653 50.9231C45.6649 48.3518 47.1517 43.3453 47.8562 39.5738C47.5814 39.9708 47.3143 40.373 47.0551 40.7803L47.0313 40.8199L47.0266 40.8262Z" fill="#1867C0"/>
<path fill-rule="evenodd" clip-rule="evenodd" d="M46.8668 55.6574V57.7917C46.8674 58.3672 47.077 58.9229 47.4565 59.3556C47.8361 59.7882 48.3598 60.0683 48.9303 60.1438C49.5009 60.2192 50.0794 60.085 50.5584 59.7659C51.0374 59.4469 51.3843 58.9648 51.5345 58.4092L52.1599 56.0912C50.3898 56.0283 48.6235 55.8835 46.8668 55.6574ZM55.8206 56.0849L56.4492 58.4108C56.5994 58.9665 56.9464 59.4487 57.4255 59.7677C57.9047 60.0868 58.4834 60.2209 59.0541 60.1452C59.6248 60.0695 60.1485 59.7892 60.5279 59.3563C60.9073 58.9233 61.1166 58.3674 61.1168 57.7917V55.6352C59.3589 55.8631 57.5918 56.0126 55.8206 56.0833V56.0849Z" fill="#1867C0"/>
</svg>
